<svg xmlns="http://www.w3.org/2000/svg" width="12.793" height="12.793" viewBox="0 0 12.793 12.793">
  <g id="_163-calendar" data-name="163-calendar" transform="translate(0)">
    <g id="Group_33" data-name="Group 33" transform="translate(0)">
      <g id="Group_32" data-name="Group 32">
        <path id="Path_31" data-name="Path 31" d="M12.293,8.8a.5.5,0,0,0,.5-.5V3a2,2,0,0,0-2-2h-.65V.5a.5.5,0,1,0-1,0V1H6.871V.5a.5.5,0,1,0-1,0V1H3.623V.5a.5.5,0,0,0-1,0V1H2A2,2,0,0,0,0,3v7.8a2,2,0,0,0,2,2h8.8a2,2,0,0,0,2-2,.5.5,0,1,0-1,0,1,1,0,0,1-1,1H2a1,1,0,0,1-1-1V3A1,1,0,0,1,2,2h.625v.5a.5.5,0,1,0,1,0V2H5.872v.5a.5.5,0,1,0,1,0V2H9.145v.5a.5.5,0,1,0,1,0V2h.65a1,1,0,0,1,1,1V8.3A.5.5,0,0,0,12.293,8.8Z"/>
      </g>
    </g>
    <g id="Group_35" data-name="Group 35" transform="translate(2.815 4.926)">
      <g id="Group_34" data-name="Group 34">
        <circle id="Ellipse_1" data-name="Ellipse 1" cx="0.4" cy="0.4" r="0.4"/>
      </g>
    </g>
    <g id="Group_37" data-name="Group 37" transform="translate(7.037 4.926)">
      <g id="Group_36" data-name="Group 36">
        <circle id="Ellipse_2" data-name="Ellipse 2" cx="0.4" cy="0.4" r="0.4"/>
      </g>
    </g>
    <g id="Group_39" data-name="Group 39" transform="translate(9.148 4.926)">
      <g id="Group_38" data-name="Group 38">
        <circle id="Ellipse_3" data-name="Ellipse 3" cx="0.4" cy="0.4" r="0.4"/>
      </g>
    </g>
    <g id="Group_41" data-name="Group 41" transform="translate(2.815 7.037)">
      <g id="Group_40" data-name="Group 40">
        <circle id="Ellipse_4" data-name="Ellipse 4" cx="0.4" cy="0.4" r="0.4"/>
      </g>
    </g>
    <g id="Group_43" data-name="Group 43" transform="translate(2.815 9.148)">
      <g id="Group_42" data-name="Group 42">
        <circle id="Ellipse_5" data-name="Ellipse 5" cx="0.4" cy="0.4" r="0.4"/>
      </g>
    </g>
    <g id="Group_45" data-name="Group 45" transform="translate(4.926 4.926)">
      <g id="Group_44" data-name="Group 44">
        <circle id="Ellipse_6" data-name="Ellipse 6" cx="0.4" cy="0.4" r="0.4"/>
      </g>
    </g>
    <g id="Group_47" data-name="Group 47" transform="translate(4.926 7.037)">
      <g id="Group_46" data-name="Group 46">
        <circle id="Ellipse_7" data-name="Ellipse 7" cx="0.4" cy="0.4" r="0.4"/>
      </g>
    </g>
    <g id="Group_49" data-name="Group 49" transform="translate(4.926 9.148)">
      <g id="Group_48" data-name="Group 48">
        <circle id="Ellipse_8" data-name="Ellipse 8" cx="0.4" cy="0.4" r="0.4"/>
      </g>
    </g>
    <g id="Group_51" data-name="Group 51" transform="translate(7.037 7.037)">
      <g id="Group_50" data-name="Group 50">
        <circle id="Ellipse_9" data-name="Ellipse 9" cx="0.4" cy="0.4" r="0.4"/>
      </g>
    </g>
    <g id="Group_53" data-name="Group 53" transform="translate(9.148 7.037)">
      <g id="Group_52" data-name="Group 52">
        <circle id="Ellipse_10" data-name="Ellipse 10" cx="0.4" cy="0.4" r="0.4"/>
      </g>
    </g>
    <g id="Group_55" data-name="Group 55" transform="translate(7.037 9.148)">
      <g id="Group_54" data-name="Group 54">
        <circle id="Ellipse_11" data-name="Ellipse 11" cx="0.4" cy="0.4" r="0.4"/>
      </g>
    </g>
  </g>
</svg>
