<svg id="_163-calendar" data-name="163-calendar" xmlns="http://www.w3.org/2000/svg" width="18.548" height="18.548" viewBox="0 0 18.548 18.548">
  <g id="Group_81" data-name="Group 81">
    <g id="Group_80" data-name="Group 80">
      <path id="Path_61" data-name="Path 61" d="M17.785,16.439a.764.764,0,0,0,.764-.764V4.582a3.058,3.058,0,0,0-3.054-3.054H15.5V.764a.764.764,0,0,0-1.527,0v.764H10.5V.764a.764.764,0,0,0-1.527,0v.764H5.536V.764a.764.764,0,0,0-1.527,0v.764H3.054A3.058,3.058,0,0,0,0,4.582V15.494a3.058,3.058,0,0,0,3.054,3.054H15.494a3.058,3.058,0,0,0,3.054-3.054c0-.422-.342.236-.764.236s-.764-.658-.764-.236a1.529,1.529,0,0,1-1.527,1.527H3.054a1.529,1.529,0,0,1-1.527-1.527V4.582A1.529,1.529,0,0,1,3.054,3.054h.955v.764a.764.764,0,0,0,1.527,0V3.054H8.972v.764a.764.764,0,0,0,1.527,0V3.054h3.474v.764a.764.764,0,0,0,1.527,0V3.054h-.007a1.529,1.529,0,0,1,1.527,1.527V15.676A.764.764,0,0,0,17.785,16.439Z" fill="#949494"/>
    </g>
  </g>
  <g id="Group_83" data-name="Group 83" transform="translate(3.933 6.08)">
    <g id="Group_82" data-name="Group 82" transform="translate(0 0)">
      <circle id="Ellipse_19" data-name="Ellipse 19" cx="1" cy="1" r="1" transform="translate(0.066 -0.08)" fill="#949494"/>
    </g>
  </g>
  <g id="Group_85" data-name="Group 85" transform="translate(10.227 6.08)">
    <g id="Group_84" data-name="Group 84" transform="translate(0 0)">
      <circle id="Ellipse_20" data-name="Ellipse 20" cx="1" cy="1" r="1" transform="translate(-0.227 -0.08)" fill="#949494"/>
    </g>
  </g>
  <g id="Group_87" data-name="Group 87" transform="translate(13.16 6.08)">
    <g id="Group_86" data-name="Group 86" transform="translate(0 0)">
      <circle id="Ellipse_21" data-name="Ellipse 21" cx="1" cy="1" r="1" transform="translate(-0.16 -0.08)" fill="#949494"/>
    </g>
  </g>
  <g id="Group_89" data-name="Group 89" transform="translate(3.933 9.227)">
    <g id="Group_88" data-name="Group 88" transform="translate(0 0)">
      <circle id="Ellipse_22" data-name="Ellipse 22" cx="1" cy="1" r="1" transform="translate(0.066 -0.227)" fill="#949494"/>
    </g>
  </g>
  <g id="Group_91" data-name="Group 91" transform="translate(3.933 13.16)">
    <g id="Group_90" data-name="Group 90" transform="translate(0 0)">
      <circle id="Ellipse_23" data-name="Ellipse 23" cx="1" cy="1" r="1" transform="translate(0.066 -0.16)" fill="#949494"/>
    </g>
  </g>
  <g id="Group_93" data-name="Group 93" transform="translate(7.08 6.08)">
    <g id="Group_92" data-name="Group 92" transform="translate(0 0)">
      <circle id="Ellipse_24" data-name="Ellipse 24" cx="1" cy="1" r="1" transform="translate(-0.08 -0.08)" fill="#949494"/>
    </g>
  </g>
  <g id="Group_95" data-name="Group 95" transform="translate(7.08 9.227)">
    <g id="Group_94" data-name="Group 94" transform="translate(0 0)">
      <circle id="Ellipse_25" data-name="Ellipse 25" cx="1" cy="1" r="1" transform="translate(-0.08 -0.227)" fill="#949494"/>
    </g>
  </g>
  <g id="Group_97" data-name="Group 97" transform="translate(7.08 13.16)">
    <g id="Group_96" data-name="Group 96" transform="translate(0 0)">
      <circle id="Ellipse_26" data-name="Ellipse 26" cx="1" cy="1" r="1" transform="translate(-0.08 -0.16)" fill="#949494"/>
    </g>
  </g>
  <g id="Group_99" data-name="Group 99" transform="translate(10.227 9.227)">
    <g id="Group_98" data-name="Group 98" transform="translate(0 0)">
      <circle id="Ellipse_27" data-name="Ellipse 27" cx="1" cy="1" r="1" transform="translate(-0.227 -0.227)" fill="#949494"/>
    </g>
  </g>
  <g id="Group_101" data-name="Group 101" transform="translate(13.16 9.227)">
    <g id="Group_100" data-name="Group 100" transform="translate(0 0)">
      <circle id="Ellipse_28" data-name="Ellipse 28" cx="1" cy="1" r="1" transform="translate(-0.16 -0.227)" fill="#949494"/>
    </g>
  </g>
  <g id="Group_103" data-name="Group 103" transform="translate(10.227 13.16)">
    <g id="Group_102" data-name="Group 102" transform="translate(0 0)">
      <circle id="Ellipse_29" data-name="Ellipse 29" cx="1" cy="1" r="1" transform="translate(-0.227 -0.16)" fill="#949494"/>
    </g>
  </g>
</svg>
