<svg xmlns="http://www.w3.org/2000/svg" width="14.483" height="14" viewBox="0 0 14.483 14">
  <g id="_6-task" data-name="6-task" transform="translate(-1 -1.5)">
    <path id="Path_2353" data-name="Path 2353" d="M15.483,4.351a1.4,1.4,0,0,0-1.4-1.4h-.528V1.983a.483.483,0,1,0-.966,0v.966H8.724V1.983a.483.483,0,0,0-.966,0v.966H3.9V1.983a.483.483,0,0,0-.966,0v.966H2.4A1.4,1.4,0,0,0,1,4.351V14.1a1.4,1.4,0,0,0,1.4,1.4H14.08a1.4,1.4,0,0,0,1.4-1.4V4.351ZM14.517,14.1a.438.438,0,0,1-.437.437H2.4a.438.438,0,0,1-.437-.437V4.351A.438.438,0,0,1,2.4,3.914h.528v.966a.483.483,0,1,0,.966,0V3.914H7.759v.966a.483.483,0,1,0,.966,0V3.914h3.862v.966a.483.483,0,1,0,.966,0V3.914h.528a.438.438,0,0,1,.437.437V14.1Z" transform="translate(0)" fill="#262626"/>
    <path id="Path_2354" data-name="Path 2354" d="M14.9,12.641l-4,4L8.824,14.572a.483.483,0,1,0-.683.683l2.414,2.414a.483.483,0,0,0,.683,0l4.345-4.345a.483.483,0,1,0-.683-.683Z" transform="translate(-3.621 -5.69)" fill="#262626"/>
  </g>
</svg>
