<svg id="Group_1301" data-name="Group 1301" xmlns="http://www.w3.org/2000/svg" xmlns:xlink="http://www.w3.org/1999/xlink" width="15" height="14" viewBox="0 0 15 14">
  <defs>
    <clipPath id="clip-path">
      <rect id="Rectangle_66" data-name="Rectangle 66" width="15" height="14" fill="#262626"/>
    </clipPath>
  </defs>
  <g id="Group_1300" data-name="Group 1300" clip-path="url(#clip-path)">
    <path id="Path_2338" data-name="Path 2338" d="M14.855,3.513a2.525,2.525,0,0,0-1.981-2.461V.5a.5.5,0,0,0-.99,0v.5H7.923V.5a.5.5,0,1,0-.99,0v.5H2.971V.5a.5.5,0,1,0-.99,0v.557A2.525,2.525,0,0,0,0,3.513v7.83a2.525,2.525,0,0,0,2.522,2.522h9.81a2.525,2.525,0,0,0,2.522-2.522V3.513ZM.99,11.343V3.513a1.531,1.531,0,0,1,.99-1.429v.392a.5.5,0,1,0,.99,0v-.5H6.932v.5a.5.5,0,1,0,.99,0v-.5h3.961v.5a.5.5,0,0,0,.99,0V2.084a1.531,1.531,0,0,1,.99,1.428V8.685a2.966,2.966,0,0,0-4.189,4.189H2.522A1.535,1.535,0,0,1,.99,11.343m10.894,1.532a1.981,1.981,0,1,1,1.981-1.981,1.981,1.981,0,0,1-1.981,1.981" fill="#262626"/>
    <path id="Path_2339" data-name="Path 2339" d="M64.5,144.99h.99a.5.5,0,0,0,0-.99H64.5a.5.5,0,0,0,0,.99" transform="translate(-62.019 -139.543)" fill="#262626"/>
    <path id="Path_2340" data-name="Path 2340" d="M160.5,144.99h.99a.5.5,0,0,0,0-.99h-.99a.5.5,0,0,0,0,.99" transform="translate(-155.048 -139.543)" fill="#262626"/>
    <path id="Path_2341" data-name="Path 2341" d="M256.5,144.99h.99a.5.5,0,0,0,0-.99h-.99a.5.5,0,0,0,0,.99" transform="translate(-248.077 -139.543)" fill="#262626"/>
    <path id="Path_2342" data-name="Path 2342" d="M352.5,144.99h.99a.5.5,0,0,0,0-.99h-.99a.5.5,0,0,0,0,.99" transform="translate(-341.106 -139.543)" fill="#262626"/>
    <path id="Path_2343" data-name="Path 2343" d="M64.5,208.99h.99a.5.5,0,0,0,0-.99H64.5a.5.5,0,0,0,0,.99" transform="translate(-62.019 -201.563)" fill="#262626"/>
    <path id="Path_2344" data-name="Path 2344" d="M160.5,208.99h.99a.5.5,0,0,0,0-.99h-.99a.5.5,0,0,0,0,.99" transform="translate(-155.048 -201.563)" fill="#262626"/>
    <path id="Path_2345" data-name="Path 2345" d="M256.5,208.99h.99a.5.5,0,0,0,0-.99h-.99a.5.5,0,0,0,0,.99" transform="translate(-248.077 -201.563)" fill="#262626"/>
    <path id="Path_2346" data-name="Path 2346" d="M352.5,208.99h.99a.5.5,0,0,0,0-.99h-.99a.5.5,0,0,0,0,.99" transform="translate(-341.106 -201.563)" fill="#262626"/>
    <path id="Path_2347" data-name="Path 2347" d="M64.5,272.99h.99a.5.5,0,0,0,0-.99H64.5a.5.5,0,0,0,0,.99" transform="translate(-62.019 -263.582)" fill="#262626"/>
    <path id="Path_2348" data-name="Path 2348" d="M160.5,272.99h.99a.5.5,0,0,0,0-.99h-.99a.5.5,0,0,0,0,.99" transform="translate(-155.048 -263.582)" fill="#262626"/>
    <path id="Path_2349" data-name="Path 2349" d="M65.981,336.5a.5.5,0,0,0-.5-.5H64.5a.5.5,0,0,0,0,.99h.99a.5.5,0,0,0,.5-.5" transform="translate(-62.019 -325.601)" fill="#262626"/>
    <path id="Path_2350" data-name="Path 2350" d="M160.5,336.99h.99a.5.5,0,0,0,0-.99h-.99a.5.5,0,0,0,0,.99" transform="translate(-155.048 -325.601)" fill="#262626"/>
    <path id="Path_2351" data-name="Path 2351" d="M369.707,305.538l-.716-.358V304.5a.5.5,0,1,0-.99,0v.99a.5.5,0,0,0,.274.443l.99.5a.5.5,0,0,0,.443-.886Z" transform="translate(-356.611 -294.592)" fill="#262626"/>
    <path id="Path_2352" data-name="Path 2352" d="M256.505,272.025a.5.5,0,1,1-.5.495.5.5,0,0,1,.5-.495" transform="translate(-248.087 -263.606)" fill="#262626"/>
  </g>
</svg>
