<svg id="_032-briefcase" data-name="032-briefcase" xmlns="http://www.w3.org/2000/svg" width="13.323" height="12.335" viewBox="0 0 13.323 12.335">
  <g id="Group_19" data-name="Group 19" transform="translate(0 0)">
    <path id="Path_24" data-name="Path 24" d="M12.8,27.127a.52.52,0,0,0,.52-.52V23.171a2.084,2.084,0,0,0-2.082-2.082H9v-.679a1.432,1.432,0,0,0-1.43-1.43H5.752a1.432,1.432,0,0,0-1.43,1.43v.678H2.082A2.084,2.084,0,0,0,0,23.171v6.063a2.084,2.084,0,0,0,2.082,2.082h9.16a2.084,2.084,0,0,0,2.082-2.082.52.52,0,1,0-1.041,0,1.042,1.042,0,0,1-1.041,1.041H2.082a1.042,1.042,0,0,1-1.041-1.041v-3.7H6.167v.782a.52.52,0,0,0,1.041,0v-.782h5.074v1.068A.52.52,0,0,0,12.8,27.127Zm-7.44-6.716a.39.39,0,0,1,.389-.389h1.82a.39.39,0,0,1,.389.389v.678h-2.6v-.678ZM1.041,24.5V23.171a1.042,1.042,0,0,1,1.041-1.041h9.16a1.042,1.042,0,0,1,1.041,1.041V24.5Z" transform="translate(0 -18.981)" fill="#171725"/>
  </g>
</svg>
