<svg xmlns="http://www.w3.org/2000/svg" width="19.057" height="17.866" viewBox="0 0 19.057 17.866">
  <g id="_591965" data-name="591965" transform="translate(0 -16)">
    <g id="Group_1289" data-name="Group 1289" transform="translate(5.955 16)">
      <g id="Group_1288" data-name="Group 1288" transform="translate(0 0)">
        <path id="Path_2334" data-name="Path 2334" d="M166.551,16C163.376,16,160,17.043,160,18.978V21.36a.6.6,0,0,0,1.191,0v-.621a12.42,12.42,0,0,0,10.72,0v.621c0,.582-1.465,1.511-4.219,1.741a.6.6,0,0,0,.049,1.189l.051,0a9.544,9.544,0,0,0,4.119-1.183v.637c0,.509-1.079,1.24-3.081,1.594a.6.6,0,0,0,.1,1.182.52.52,0,0,0,.1-.01,7.955,7.955,0,0,0,2.874-1.005v.622c0,.509-1.079,1.24-3.081,1.594a.6.6,0,0,0,.1,1.182.52.52,0,0,0,.1-.01,7.978,7.978,0,0,0,2.874-1.005v.622c0,.509-1.079,1.24-3.081,1.594a.6.6,0,0,0,.1,1.182.52.52,0,0,0,.1-.01,7.978,7.978,0,0,0,2.874-1.005v.622c0,.582-1.465,1.511-4.219,1.741a.6.6,0,0,0,.049,1.189l.051,0c2.643-.222,5.31-1.211,5.31-2.928V18.978C173.1,17.043,169.726,16,166.551,16Zm0,4.764c-3.272,0-5.36-1.059-5.36-1.787s2.088-1.787,5.36-1.787,5.36,1.059,5.36,1.787S169.823,20.764,166.551,20.764Z" transform="translate(-160 -16)" fill="#262626"/>
      </g>
    </g>
    <g id="Group_1291" data-name="Group 1291" transform="translate(0 23.146)">
      <g id="Group_1290" data-name="Group 1290" transform="translate(0 0)">
        <path id="Path_2335" data-name="Path 2335" d="M6.551,208C3.376,208,0,209.043,0,210.978v4.764c0,1.934,3.376,2.978,6.551,2.978s6.551-1.043,6.551-2.978v-4.764C13.1,209.043,9.726,208,6.551,208Zm5.36,7.742c0,.728-2.088,1.787-5.36,1.787s-5.36-1.059-5.36-1.787v-.621a10.807,10.807,0,0,0,5.36,1.216,10.807,10.807,0,0,0,5.36-1.216Zm0-2.382c0,.728-2.088,1.787-5.36,1.787s-5.36-1.059-5.36-1.787v-.621a10.807,10.807,0,0,0,5.36,1.216,10.807,10.807,0,0,0,5.36-1.216Zm-5.36-.6c-3.272,0-5.36-1.059-5.36-1.787s2.088-1.787,5.36-1.787,5.36,1.059,5.36,1.787S9.823,212.764,6.551,212.764Z" transform="translate(0 -208)" fill="#262626"/>
      </g>
    </g>
  </g>
</svg>
