<svg xmlns="http://www.w3.org/2000/svg" width="12.793" height="12.793" viewBox="0 0 12.793 12.793">
  <g id="_077-menu-1" data-name="077-menu-1" transform="translate(0)">
    <g id="Group_25" data-name="Group 25" transform="translate(6.88)">
      <g id="Group_24" data-name="Group 24">
        <path id="Path_27" data-name="Path 27" d="M279.909,0H278a2.007,2.007,0,0,0-2,2v1.9a2.007,2.007,0,0,0,2,2h1.9a2.007,2.007,0,0,0,2-2V2A2.007,2.007,0,0,0,279.909,0Zm1,3.909a1,1,0,0,1-1,1H278a1,1,0,0,1-1-1V2a1,1,0,0,1,1-1h1.9a1,1,0,0,1,1,1Z" transform="translate(-276)" fill="#171725"/>
      </g>
    </g>
    <g id="Group_27" data-name="Group 27" transform="translate(0)">
      <g id="Group_26" data-name="Group 26">
        <path id="Path_28" data-name="Path 28" d="M3.909,0H2A2.007,2.007,0,0,0,0,2v1.9a2.007,2.007,0,0,0,2,2h1.9a2.007,2.007,0,0,0,2-2V2A2.007,2.007,0,0,0,3.909,0Zm1,3.909a1,1,0,0,1-1,1H2a1,1,0,0,1-1-1V2A1,1,0,0,1,2,1h1.9a1,1,0,0,1,1,1Z" fill="#171725"/>
      </g>
    </g>
    <g id="Group_29" data-name="Group 29" transform="translate(0 6.88)">
      <g id="Group_28" data-name="Group 28">
        <path id="Path_29" data-name="Path 29" d="M3.909,276H2a2.007,2.007,0,0,0-2,2v1.9a2.007,2.007,0,0,0,2,2h1.9a2.007,2.007,0,0,0,2-2V278A2.007,2.007,0,0,0,3.909,276Zm1,3.909a1,1,0,0,1-1,1H2a1,1,0,0,1-1-1V278a1,1,0,0,1,1-1h1.9a1,1,0,0,1,1,1Z" transform="translate(0 -276)" fill="#171725"/>
      </g>
    </g>
    <g id="Group_31" data-name="Group 31" transform="translate(6.88 6.88)">
      <g id="Group_30" data-name="Group 30">
        <path id="Path_30" data-name="Path 30" d="M281.412,279.408a.5.5,0,0,0-.5.5,1,1,0,0,1-1,1H278a1,1,0,0,1-1-1V278a1,1,0,0,1,1-1h1.9a1,1,0,0,1,.919.6.5.5,0,1,0,.918-.4,2.005,2.005,0,0,0-1.837-1.2H278a2.007,2.007,0,0,0-2,2v1.9a2.007,2.007,0,0,0,2,2h1.9a2.007,2.007,0,0,0,2-2A.5.5,0,0,0,281.412,279.408Z" transform="translate(-276 -276)" fill="#171725"/>
      </g>
    </g>
  </g>
</svg>
