<svg id="_748060" data-name="748060" xmlns="http://www.w3.org/2000/svg" width="18.744" height="14.9" viewBox="0 0 18.744 14.9">
  <g id="Group_1264" data-name="Group 1264">
    <g id="Group_1263" data-name="Group 1263">
      <path id="Path_2320" data-name="Path 2320" d="M204.782,123.713a.732.732,0,0,0-.93-.087c-1.1.747-6.591,4.5-7.181,5.092a2.2,2.2,0,0,0,3.106,3.106c.591-.591,4.346-6.086,5.092-7.181A.732.732,0,0,0,204.782,123.713Zm-6.041,7.076a.732.732,0,0,1-1.036-1.035c.229-.227,1.79-1.339,3.709-2.674C200.081,129,198.968,130.559,198.742,130.789Z" transform="translate(-188.852 -120.899)" fill="#0070ac"/>
      <path id="Path_2321" data-name="Path 2321" d="M3.376,65.276l-.9.441a7.871,7.871,0,0,1-.494-6.654l1.036.5a.732.732,0,1,0,.633-1.32l-1.023-.49A7.918,7.918,0,0,1,8.64,54v1.1a.732.732,0,1,0,1.464,0V54a7.817,7.817,0,0,1,2.518.663.732.732,0,1,0,.6-1.335A9.364,9.364,0,0,0,1.588,67.074a.732.732,0,0,0,.93.251l1.5-.732a.732.732,0,1,0-.642-1.316Z" transform="translate(0 -52.499)" fill="#0070ac"/>
      <path id="Path_2322" data-name="Path 2322" d="M393.635,191.925a.732.732,0,1,0-1.335.6,7.882,7.882,0,0,1-.315,7.1l-.944-.449a.732.732,0,1,0-.63,1.322l1.538.732a.732.732,0,0,0,.923-.254,9.35,9.35,0,0,0,.762-9.055Z" transform="translate(-375.717 -186.405)" fill="#0070ac"/>
    </g>
  </g>
</svg>
