<svg xmlns="http://www.w3.org/2000/svg" width="15" height="11.924" viewBox="0 0 15 11.924">
  <g id="_748060" data-name="748060" transform="translate(0 -52.499)">
    <g id="Group_1264" data-name="Group 1264" transform="translate(0 52.499)">
      <g id="Group_1263" data-name="Group 1263">
        <path id="Path_2320" data-name="Path 2320" d="M203.034,123.67a.586.586,0,0,0-.744-.07c-.877.6-5.274,3.6-5.747,4.075a1.758,1.758,0,0,0,2.486,2.486c.473-.473,3.478-4.87,4.075-5.747A.586.586,0,0,0,203.034,123.67Zm-4.834,5.663a.586.586,0,0,1-.829-.829c.184-.181,1.432-1.072,2.968-2.14C199.272,127.9,198.381,129.149,198.2,129.332Z" transform="translate(-190.285 -121.418)" fill="#fff"/>
        <path id="Path_2321" data-name="Path 2321" d="M2.7,62.724l-.723.353a6.3,6.3,0,0,1-.395-5.325l.829.4a.586.586,0,1,0,.507-1.057L2.1,56.7a6.336,6.336,0,0,1,4.813-3v.881a.586.586,0,0,0,1.172,0V53.7a6.255,6.255,0,0,1,2.015.531.586.586,0,1,0,.482-1.068,7.494,7.494,0,0,0-9.312,11,.586.586,0,0,0,.744.2l1.2-.586A.586.586,0,1,0,2.7,62.724Z" transform="translate(0 -52.499)" fill="#fff"/>
        <path id="Path_2322" data-name="Path 2322" d="M392.908,191.839a.586.586,0,1,0-1.068.482,6.308,6.308,0,0,1-.252,5.683l-.755-.36a.586.586,0,1,0-.5,1.058l1.23.586a.586.586,0,0,0,.739-.2,7.482,7.482,0,0,0,.61-7.246Z" transform="translate(-378.569 -187.422)" fill="#fff"/>
      </g>
    </g>
  </g>
</svg>
