<svg xmlns="http://www.w3.org/2000/svg" width="16.018" height="16.019" viewBox="0 0 16.018 16.019">
  <path id="_183-user-1" data-name="183-user-1" d="M14.642,10.074a1.868,1.868,0,0,0-.624.107l-1.693-2.1A4.943,4.943,0,1,0,4.68,8.065L2.993,10.178a1.877,1.877,0,1,0-.615,3.65.626.626,0,0,0,0-1.251A.626.626,0,1,1,3,11.951a.626.626,0,1,0,1.251,0,1.866,1.866,0,0,0-.285-.992L5.59,8.93a4.916,4.916,0,0,0,2.294.917v2.526A1.877,1.877,0,0,0,8.51,16.02a.626.626,0,1,0,0-1.251.626.626,0,1,1,.626-.626.626.626,0,1,0,1.251,0,1.88,1.88,0,0,0-1.251-1.769V9.847a4.916,4.916,0,0,0,2.275-.9l1.633,2.024a1.876,1.876,0,0,0,1.6,2.861.626.626,0,1,0,0-1.251.626.626,0,1,1,.626-.626.626.626,0,1,0,1.251,0,1.879,1.879,0,0,0-1.877-1.877ZM8.51,8.635a3.669,3.669,0,0,1-1.877-.514V7.782a.458.458,0,0,1,.15-.342A2.537,2.537,0,0,1,8.51,6.8a2.536,2.536,0,0,1,1.727.637.458.458,0,0,1,.15.342v.339a3.669,3.669,0,0,1-1.877.514Zm0-3.1a.813.813,0,1,1,.813-.813A.814.814,0,0,1,8.51,5.539Zm0-4.287A3.69,3.69,0,0,1,11.5,7.106a1.694,1.694,0,0,0-.429-.6,3.736,3.736,0,0,0-.879-.585,2.065,2.065,0,1,0-3.364,0,3.74,3.74,0,0,0-.879.585,1.7,1.7,0,0,0-.41.557L5.5,7.085A3.69,3.69,0,0,1,8.51,1.252Zm0,0" transform="translate(-0.501 0)" fill="#171725"/>
</svg>
