<svg xmlns="http://www.w3.org/2000/svg" width="13.587" height="17.139" viewBox="0 0 13.587 17.139">
  <path id="_177-id-card" data-name="177-id-card" d="M9.939,10.412a1.73,1.73,0,0,0-.58-1.295A3.758,3.758,0,0,0,8.5,8.548a2.008,2.008,0,1,0-3.423,0,3.755,3.755,0,0,0-.855.569,1.73,1.73,0,0,0-.58,1.295v.335a.669.669,0,0,0,1.339,0v-.335a.39.39,0,0,1,.129-.293,2.475,2.475,0,0,1,1.678-.613,2.476,2.476,0,0,1,1.678.613.39.39,0,0,1,.129.293v.335a.669.669,0,0,0,1.339,0ZM6.123,7.5a.669.669,0,1,1,.669.669A.67.67,0,0,1,6.123,7.5Zm3.816,5.927a.67.67,0,0,1-.669.669H4.315a.669.669,0,1,1,0-1.339H9.269A.67.67,0,0,1,9.939,13.425Zm2.979-1.608a.67.67,0,0,0,.669-.669v-6.8a2.681,2.681,0,0,0-2.678-2.678H8.772a2.008,2.008,0,0,0-3.96,0H2.678A2.681,2.681,0,0,0,0,4.352V14.461a2.681,2.681,0,0,0,2.678,2.678h8.231a2.681,2.681,0,0,0,2.678-2.678.669.669,0,1,0-1.339,0A1.341,1.341,0,0,1,10.909,15.8H2.678a1.341,1.341,0,0,1-1.339-1.339V4.352A1.341,1.341,0,0,1,2.678,3.013H5.035a2.007,2.007,0,0,0,3.515,0h2.36a1.341,1.341,0,0,1,1.339,1.339v6.8a.669.669,0,0,0,.669.669ZM6.792,2.712a.67.67,0,0,1-.669-.669V2.009a.669.669,0,0,1,1.339,0v.033A.67.67,0,0,1,6.792,2.712Zm0,0" transform="translate(0 0)" fill="#171725"/>
</svg>
