<svg xmlns="http://www.w3.org/2000/svg" width="15.923" height="15.923" viewBox="0 0 15.923 15.923">
  <path id="_173-group" data-name="173-group" d="M7.961,3.732A1.866,1.866,0,1,0,6.1,1.866,1.868,1.868,0,0,0,7.961,3.732Zm0-2.488a.622.622,0,1,1-.622.622A.623.623,0,0,1,7.961,1.244Zm3.421,8.649a2.188,2.188,0,0,1-1.057,1.867l-.045.027a.938.938,0,0,0-.453.8V15.3a.622.622,0,0,1-1.244,0V12.586A2.188,2.188,0,0,1,9.64,10.72l.045-.027a.938.938,0,0,0,.453-.8V7.122c0-1.285-1.192-1.555-2.193-1.555s-2.193.27-2.193,1.555V9.884a.937.937,0,0,0,.46.8l.053.031A2.185,2.185,0,0,1,7.339,12.6V15.3a.622.622,0,0,1-1.244,0V12.6a.936.936,0,0,0-.46-.8l-.053-.031A2.186,2.186,0,0,1,4.509,9.884V7.122A2.526,2.526,0,0,1,5.6,4.938a4.133,4.133,0,0,1,2.342-.615,4.133,4.133,0,0,1,2.342.615,2.526,2.526,0,0,1,1.094,2.184ZM3.11,4.976A1.866,1.866,0,1,0,1.244,3.11,1.868,1.868,0,0,0,3.11,4.976Zm0-2.488a.622.622,0,1,1-.622.622A.623.623,0,0,1,3.11,2.488ZM4.976,13.124V15.3a.622.622,0,0,1-1.244,0V13.124a.622.622,0,0,1,1.244,0ZM3.67,6.2a.622.622,0,0,1-.622.622c-1.8,0-1.8.847-1.8,1.166v2.643a.937.937,0,0,0,.373.746,2.188,2.188,0,0,1,.871,1.742V15.3a.622.622,0,1,1-1.244,0V13.124a.937.937,0,0,0-.373-.746A2.188,2.188,0,0,1,0,10.636V7.993A2.159,2.159,0,0,1,1,6.071a3.792,3.792,0,0,1,2.049-.489A.622.622,0,0,1,3.67,6.2Zm9.143-1.228A1.866,1.866,0,1,0,10.947,3.11,1.868,1.868,0,0,0,12.813,4.976Zm0-2.488a.622.622,0,1,1-.622.622A.623.623,0,0,1,12.813,2.488Zm-.622,10.636V15.3a.622.622,0,1,1-1.244,0V13.124a.622.622,0,1,1,1.244,0Zm3.732-5.131v2.643a2.188,2.188,0,0,1-.871,1.742.937.937,0,0,0-.373.746V15.3a.622.622,0,0,1-1.244,0V13.124a2.188,2.188,0,0,1,.871-1.742.937.937,0,0,0,.373-.746V7.993c0-.319,0-1.166-1.8-1.166a.622.622,0,1,1,0-1.244,3.792,3.792,0,0,1,2.049.489A2.159,2.159,0,0,1,15.923,7.993Zm0,0" fill="#0070ac"/>
</svg>
