<svg xmlns="http://www.w3.org/2000/svg" width="103.671" height="26.273" viewBox="0 0 103.671 26.273">
  <g id="Group_14" data-name="Group 14" transform="translate(-72.175 -47.62)">
    <g id="Group_11" data-name="Group 11" transform="translate(99.268 55.539)">
      <path id="Path_16" data-name="Path 16" d="M147.119,209.075h6.156l-.378,2.155a7.727,7.727,0,0,1,5.908-2.539,5.916,5.916,0,0,1,4.756,1.846c1.206,1.462,1.1,2.925.774,4.809l-1.912,10.927h-6.156l1.521-8.7c.174-1,.475-2.5-.184-3.347a2.192,2.192,0,0,0-1.835-.731,3.943,3.943,0,0,0-2.411.808,4.778,4.778,0,0,0-1.478,2.731l-1.616,9.234H144.11Z" transform="translate(-144.11 -208.497)" fill="#fff"/>
      <path id="Path_17" data-name="Path 17" d="M160.17,220.652a7.091,7.091,0,0,0,2.24,1.27,7.341,7.341,0,0,0,2.312.422,2.985,2.985,0,0,0,1.657-.461,1.186,1.186,0,0,0,.45-.808.8.8,0,0,0-.173-.77,3.205,3.205,0,0,0-1.509-.616L163.6,219.3a4.5,4.5,0,0,1-2.739-1.5,3.63,3.63,0,0,1-.6-2.963,7.464,7.464,0,0,1,2.35-4.193,10.107,10.107,0,0,1,6.519-2.078,12.718,12.718,0,0,1,5.307,1.117l-2.765,3.924a7.485,7.485,0,0,0-3.083-.846,2.929,2.929,0,0,0-1.485.346,1.159,1.159,0,0,0-.688.846.819.819,0,0,0,.563.963c.538.23,1.037.23,1.952.5l1.062.309a5.834,5.834,0,0,1,2.3,1.345,4.246,4.246,0,0,1,.709,3.425,7.035,7.035,0,0,1-2.478,4.27,10.307,10.307,0,0,1-6.726,2.155,11.132,11.132,0,0,1-6.575-2Z" transform="translate(-136.24 -208.57)" fill="#fff"/>
      <path id="Path_18" data-name="Path 18" d="M184.083,209.148h6.156l-3.009,17.2h-6.156l.33-1.885a7.666,7.666,0,0,1-5.779,2.462,6.874,6.874,0,0,1-5.716-2.731,7.556,7.556,0,0,1-1.358-6.31A11.576,11.576,0,0,1,172.409,211a10.469,10.469,0,0,1,6.618-2.425,5.616,5.616,0,0,1,4.766,2.232Zm-7.474,5.772a4.925,4.925,0,0,0-1.721,2.808,3.414,3.414,0,0,0,.7,2.809,3.592,3.592,0,0,0,2.568,1.153,4.7,4.7,0,0,0,2.979-1.192,4.585,4.585,0,0,0,1.64-2.771A3.222,3.222,0,0,0,179.5,213.8,4.66,4.66,0,0,0,176.608,214.92Z" transform="translate(-129.551 -208.57)" fill="#fff"/>
      <path id="Path_19" data-name="Path 19" d="M184.954,209.032h6.156l-.493,2.809a7.142,7.142,0,0,1,2.841-2.385,7.458,7.458,0,0,1,3.315-.693c.154,0,.418.038,1.219.077l-1.017,5.811a4.764,4.764,0,0,0-2.547-.616,4.649,4.649,0,0,0-2.971.923,6.2,6.2,0,0,0-2.072,3.924L188.1,226.23h-6.156Z" transform="translate(-121.415 -208.454)" fill="#fff"/>
    </g>
    <g id="Group_13" data-name="Group 13" transform="translate(72.175 47.62)">
      <path id="Path_252" data-name="Path 252" d="M151.189,215.009l1-5.767a35.61,35.61,0,0,0-25.017,12.527S135.865,215.253,151.189,215.009Z" transform="translate(-127.175 -200.248)" fill="#f06d4b"/>
      <g id="Group_12" data-name="Group 12" transform="translate(6.561)">
        <path id="Path_20" data-name="Path 20" d="M139.39,214.451a45.565,45.565,0,0,0-7,1.985l-1.112,6.35h17.789l.99-5.655H138.922Z" transform="translate(-131.276 -197.123)" fill="#fff"/>
        <path id="Path_21" data-name="Path 21" d="M134.883,203.62l-2.134,12.2a35.33,35.33,0,0,1,5.582-2.592c.555-.2,1.094-.378,1.622-.538l.6-3.414h11.133l.989-5.657Z" transform="translate(-130.392 -203.62)" fill="#fff"/>
      </g>
    </g>
  </g>
</svg>
