<svg xmlns="http://www.w3.org/2000/svg" width="146.017" height="37.004" viewBox="0 0 146.017 37.004">
  <g id="Group_14" data-name="Group 14" transform="translate(-72.175 -47.62)">
    <g id="Group_11" data-name="Group 11" transform="translate(110.335 58.774)">
      <path id="Path_16" data-name="Path 16" d="M148.348,209.232h8.671l-.532,3.035a10.883,10.883,0,0,1,8.322-3.576c2.492,0,5.043.595,6.7,2.6,1.7,2.06,1.555,4.119,1.091,6.773l-2.693,15.39h-8.671l2.143-12.247c.246-1.408.669-3.522-.259-4.714a3.088,3.088,0,0,0-2.585-1.03,5.554,5.554,0,0,0-3.4,1.138,6.729,6.729,0,0,0-2.082,3.846l-2.276,13.006H144.11Z" transform="translate(-144.11 -208.418)" fill="#0070ac"/>
      <path id="Path_17" data-name="Path 17" d="M161.372,225.587a9.988,9.988,0,0,0,3.155,1.789,10.34,10.34,0,0,0,3.256.595,4.2,4.2,0,0,0,2.334-.649,1.671,1.671,0,0,0,.633-1.138,1.121,1.121,0,0,0-.243-1.084,4.515,4.515,0,0,0-2.125-.868l-2.181-.543a6.341,6.341,0,0,1-3.858-2.114,5.112,5.112,0,0,1-.84-4.173,10.512,10.512,0,0,1,3.31-5.906c2.174-1.9,5.606-2.927,9.182-2.927a17.913,17.913,0,0,1,7.474,1.573l-3.894,5.527a10.543,10.543,0,0,0-4.342-1.192,4.125,4.125,0,0,0-2.091.487,1.632,1.632,0,0,0-.969,1.192,1.153,1.153,0,0,0,.793,1.357c.757.324,1.46.324,2.749.7l1.5.435a8.216,8.216,0,0,1,3.245,1.9,5.98,5.98,0,0,1,1,4.824,9.908,9.908,0,0,1-3.49,6.014c-3.312,2.819-7.467,3.035-9.473,3.035a15.679,15.679,0,0,1-9.261-2.817Z" transform="translate(-127.667 -208.57)" fill="#0070ac"/>
      <path id="Path_18" data-name="Path 18" d="M190.5,209.383h8.671l-4.238,24.223h-8.671l.464-2.654a10.8,10.8,0,0,1-8.139,3.468,9.681,9.681,0,0,1-8.051-3.846,10.642,10.642,0,0,1-1.913-8.887,16.3,16.3,0,0,1,5.435-9.7,14.745,14.745,0,0,1,9.322-3.416,7.91,7.91,0,0,1,6.713,3.143Zm-10.527,8.13a6.936,6.936,0,0,0-2.425,3.955,4.809,4.809,0,0,0,.987,3.957,5.06,5.06,0,0,0,3.617,1.625,6.624,6.624,0,0,0,4.2-1.679,6.458,6.458,0,0,0,2.31-3.9,4.538,4.538,0,0,0-4.615-5.527A6.563,6.563,0,0,0,179.968,217.513Z" transform="translate(-113.689 -208.57)" fill="#0070ac"/>
      <path id="Path_19" data-name="Path 19" d="M186.183,209.142h8.671l-.694,3.957a10.06,10.06,0,0,1,4-3.36,10.5,10.5,0,0,1,4.669-.976c.216,0,.588.054,1.717.108l-1.433,8.184a6.709,6.709,0,0,0-3.587-.867,6.547,6.547,0,0,0-4.184,1.3,8.727,8.727,0,0,0-2.918,5.527l-1.809,10.349h-8.671Z" transform="translate(-96.691 -208.328)" fill="#0070ac"/>
    </g>
    <g id="Group_13" data-name="Group 13" transform="translate(72.175 47.62)">
      <path id="Path_252" data-name="Path 252" d="M161,217.365l1.413-8.123a50.155,50.155,0,0,0-35.235,17.643S139.415,217.708,161,217.365Z" transform="translate(-127.175 -196.574)" fill="#f06d4b"/>
      <g id="Group_12" data-name="Group 12" transform="translate(9.241)">
        <path id="Path_20" data-name="Path 20" d="M142.7,214.451a64.172,64.172,0,0,0-9.863,2.8l-1.566,8.943h25.055l1.395-7.965H142.045Z" transform="translate(-131.276 -190.045)" fill="#0070ac"/>
        <path id="Path_21" data-name="Path 21" d="M135.755,203.62,132.749,220.8a49.762,49.762,0,0,1,7.862-3.65c.782-.282,1.541-.532,2.285-.757l.841-4.809h15.681l1.393-7.968Z" transform="translate(-129.43 -203.62)" fill="#0070ac"/>
      </g>
    </g>
  </g>
</svg>
