<svg id="_3082998" data-name="3082998" xmlns="http://www.w3.org/2000/svg" width="15" height="15" viewBox="0 0 15 15">
  <g id="Group_1228" data-name="Group 1228" transform="translate(1.819 2.192)">
    <g id="Group_1222" data-name="Group 1222" transform="translate(0 0)">
      <path id="Path_2283" data-name="Path 2283" d="M59.289,71.408H57.249a.481.481,0,0,1-.481-.481V68.887a.481.481,0,0,1,.481-.481h2.041a.481.481,0,0,1,.481.481v2.041A.481.481,0,0,1,59.289,71.408Zm-1.56-.962h1.079V69.368H57.73Z" transform="translate(-56.768 -68.406)" fill="#fff"/>
    </g>
    <g id="Group_1223" data-name="Group 1223" transform="translate(0.246 4.244)">
      <path id="Path_2284" data-name="Path 2284" d="M64.458,200.83h2.316v.962H64.458Z" transform="translate(-64.458 -200.83)" fill="#fff"/>
    </g>
    <g id="Group_1224" data-name="Group 1224" transform="translate(0.246 6.285)">
      <path id="Path_2285" data-name="Path 2285" d="M64.458,264.5h2.316v.962H64.458Z" transform="translate(-64.458 -264.5)" fill="#fff"/>
    </g>
    <g id="Group_1225" data-name="Group 1225" transform="translate(0.246 8.326)">
      <path id="Path_2286" data-name="Path 2286" d="M64.458,328.171h2.284v.962H64.458Z" transform="translate(-64.458 -328.171)" fill="#fff"/>
    </g>
    <g id="Group_1226" data-name="Group 1226" transform="translate(3.908 2.041)">
      <path id="Path_2287" data-name="Path 2287" d="M178.692,132.076h1.8v.962h-1.8Z" transform="translate(-178.692 -132.076)" fill="#fff"/>
    </g>
    <g id="Group_1227" data-name="Group 1227" transform="translate(3.908)">
      <path id="Path_2288" data-name="Path 2288" d="M178.692,68.4h1.8v.962h-1.8Z" transform="translate(-178.692 -68.405)" fill="#fff"/>
    </g>
  </g>
  <g id="Group_1231" data-name="Group 1231">
    <g id="Group_1229" data-name="Group 1229">
      <path id="Path_2289" data-name="Path 2289" d="M5.179,13.672H.929A.931.931,0,0,1,0,12.743V.929A.931.931,0,0,1,.929,0h7.73a.931.931,0,0,1,.929.929V2.793H8.627V.962H.962V12.711H5.179Z" fill="#fff"/>
    </g>
    <g id="Group_1230" data-name="Group 1230" transform="translate(8.627 3.562)">
      <path id="Path_2290" data-name="Path 2290" d="M269.172,111.136h.962v.8h-.962Z" transform="translate(-269.172 -111.136)" fill="#fff"/>
    </g>
    <path id="Path_2291" data-name="Path 2291" d="M162.97,158a4.968,4.968,0,1,0,4.968,4.968A4.974,4.974,0,0,0,162.97,158Zm3.421,2.885h-1.444a6.884,6.884,0,0,0-.493-1.638A4.03,4.03,0,0,1,166.391,160.885Zm.586,2.083a4,4,0,0,1-.16,1.122h-1.739c.034-.369.051-.746.051-1.122s-.017-.753-.051-1.122h1.739A4,4,0,0,1,166.976,162.968Zm-3.985,4.006c-.121,0-.428-.209-.72-1a6.43,6.43,0,0,1-.257-.923h1.954a6.438,6.438,0,0,1-.257.923C163.419,166.765,163.113,166.974,162.991,166.974Zm-1.121-2.885c-.036-.36-.054-.737-.054-1.122s.019-.761.054-1.122h2.242c.036.36.054.737.054,1.122s-.019.761-.054,1.122Zm-2.907-1.122a3.994,3.994,0,0,1,.16-1.122h1.782c-.034.369-.051.746-.051,1.122s.017.753.051,1.122h-1.782A3.993,3.993,0,0,1,158.964,162.968Zm4.028-4.006c.121,0,.428.209.72,1a6.438,6.438,0,0,1,.257.923h-1.954a6.43,6.43,0,0,1,.257-.923C162.563,159.171,162.87,158.962,162.991,158.962Zm-1.452.264a6.839,6.839,0,0,0-.5,1.659h-1.487A4.029,4.029,0,0,1,161.539,159.226Zm-1.99,5.825h1.487a6.842,6.842,0,0,0,.5,1.659A4.029,4.029,0,0,1,159.549,165.051Zm4.9,1.638a6.884,6.884,0,0,0,.493-1.638h1.445A4.031,4.031,0,0,1,164.453,166.69Z" transform="translate(-152.938 -152.936)" fill="#fff"/>
  </g>
</svg>
