<svg id="_3082998" data-name="3082998" xmlns="http://www.w3.org/2000/svg" width="16.981" height="16.981" viewBox="0 0 16.981 16.981">
  <g id="Group_1228" data-name="Group 1228" transform="translate(2.06 2.482)">
    <g id="Group_1222" data-name="Group 1222" transform="translate(0 0)">
      <path id="Path_2283" data-name="Path 2283" d="M59.622,71.8h-2.31a.544.544,0,0,1-.544-.544V68.95a.544.544,0,0,1,.544-.544h2.31a.544.544,0,0,1,.544.544v2.31A.544.544,0,0,1,59.622,71.8Zm-1.766-1.089h1.222V69.495H57.857Z" transform="translate(-56.768 -68.406)" fill="#0070ac"/>
    </g>
    <g id="Group_1223" data-name="Group 1223" transform="translate(0.279 4.805)">
      <path id="Path_2284" data-name="Path 2284" d="M64.458,200.83H67.08v1.089H64.458Z" transform="translate(-64.458 -200.83)" fill="#0070ac"/>
    </g>
    <g id="Group_1224" data-name="Group 1224" transform="translate(0.279 7.115)">
      <path id="Path_2285" data-name="Path 2285" d="M64.458,264.5H67.08v1.089H64.458Z" transform="translate(-64.458 -264.5)" fill="#0070ac"/>
    </g>
    <g id="Group_1225" data-name="Group 1225" transform="translate(0.279 9.425)">
      <path id="Path_2286" data-name="Path 2286" d="M64.458,328.171h2.585v1.089H64.458Z" transform="translate(-64.458 -328.171)" fill="#0070ac"/>
    </g>
    <g id="Group_1226" data-name="Group 1226" transform="translate(4.424 2.31)">
      <path id="Path_2287" data-name="Path 2287" d="M178.692,132.076h2.033v1.089h-2.033Z" transform="translate(-178.692 -132.076)" fill="#0070ac"/>
    </g>
    <g id="Group_1227" data-name="Group 1227" transform="translate(4.424)">
      <path id="Path_2288" data-name="Path 2288" d="M178.692,68.4h2.033v1.089h-2.033Z" transform="translate(-178.692 -68.405)" fill="#0070ac"/>
    </g>
  </g>
  <g id="Group_1231" data-name="Group 1231">
    <g id="Group_1229" data-name="Group 1229">
      <path id="Path_2289" data-name="Path 2289" d="M5.863,15.478H1.052A1.053,1.053,0,0,1,0,14.426V1.052A1.053,1.053,0,0,1,1.052,0H9.8a1.053,1.053,0,0,1,1.052,1.052V3.162H9.767V1.089H1.089v13.3H5.863Z" fill="#0070ac"/>
    </g>
    <g id="Group_1230" data-name="Group 1230" transform="translate(9.767 4.032)">
      <path id="Path_2290" data-name="Path 2290" d="M269.172,111.136h1.089v.9h-1.089Z" transform="translate(-269.172 -111.136)" fill="#0070ac"/>
    </g>
    <path id="Path_2291" data-name="Path 2291" d="M163.626,158a5.624,5.624,0,1,0,5.624,5.624A5.63,5.63,0,0,0,163.626,158Zm3.872,3.266h-1.635a7.792,7.792,0,0,0-.558-1.854A4.562,4.562,0,0,1,167.5,161.266Zm.663,2.358a4.523,4.523,0,0,1-.181,1.27h-1.969c.038-.417.058-.844.058-1.27s-.019-.853-.058-1.27h1.969A4.523,4.523,0,0,1,168.161,163.624Zm-4.511,4.536c-.137,0-.485-.237-.815-1.132a7.28,7.28,0,0,1-.291-1.045h2.212a7.288,7.288,0,0,1-.291,1.045C164.135,167.923,163.788,168.16,163.65,168.16Zm-1.269-3.266c-.04-.408-.061-.834-.061-1.27s.021-.862.061-1.27h2.538c.04.408.061.834.061,1.27s-.021.862-.061,1.27Zm-3.291-1.27a4.521,4.521,0,0,1,.181-1.27h2.017c-.038.417-.058.844-.058,1.27s.019.853.058,1.27h-2.017A4.521,4.521,0,0,1,159.091,163.624Zm4.56-4.536c.137,0,.485.237.815,1.132a7.288,7.288,0,0,1,.291,1.045h-2.212a7.28,7.28,0,0,1,.291-1.045C163.166,159.325,163.513,159.089,163.65,159.089Zm-1.644.3a7.742,7.742,0,0,0-.569,1.878h-1.684A4.561,4.561,0,0,1,162.006,159.388Zm-2.253,6.595h1.684a7.745,7.745,0,0,0,.569,1.878A4.561,4.561,0,0,1,159.754,165.983Zm5.551,1.855a7.793,7.793,0,0,0,.558-1.855H167.5A4.563,4.563,0,0,1,165.305,167.837Z" transform="translate(-152.269 -152.267)" fill="#0070ac"/>
  </g>
</svg>
