<svg xmlns="http://www.w3.org/2000/svg" width="20" height="18" viewBox="0 0 20 18">
  <g id="_2901149" data-name="2901149" transform="translate(-187.359 -93.903)">
    <path id="Path_2356" data-name="Path 2356" d="M189.9,99.819a9,9,0,1,1,.663,7.585,1,1,0,1,1,1.731-1,7,7,0,1,0-.685-5.367l1.752-1a1,1,0,0,1,.992,1.736l-3.5,2a1,1,0,0,1-1.386-.412l-2-3.9a1,1,0,0,1,1.78-.912Zm9.457,2.67,2.707,2.707a1,1,0,0,1-1.414,1.414l-3-3a1,1,0,0,1-.293-.707v-4a1,1,0,0,1,2,0Z" fill="#0070ac" fill-rule="evenodd"/>
  </g>
</svg>
