<svg xmlns="http://www.w3.org/2000/svg" width="30.777" height="27.388" viewBox="0 0 30.777 27.388">
  <g id="Group_772" data-name="Group 772" transform="translate(0 0)">
    <g id="Group_773" data-name="Group 773" transform="translate(0 0)">
      <path id="Path_1083" data-name="Path 1083" d="M25.626,19.168l1.07-6.154A38,38,0,0,0,0,26.381s9.275-6.953,25.626-7.213" transform="translate(0 -3.415)" fill="#f06d4b"/>
      <path id="Path_1084" data-name="Path 1084" d="M18.153,25.071a48.426,48.426,0,0,0-7.474,2.119L9.493,33.967H28.477l1.056-6.036H17.653Z" transform="translate(-2.491 -6.579)" fill="#fff"/>
      <path id="Path_1085" data-name="Path 1085" d="M15.18,0,12.9,13.019a37.717,37.717,0,0,1,5.957-2.764c.592-.214,1.168-.4,1.73-.575l.638-3.644h11.88L34.163,0Z" transform="translate(-3.386)" fill="#fff"/>
    </g>
  </g>
</svg>
