<svg xmlns="http://www.w3.org/2000/svg" width="21.349" height="21.349" viewBox="0 0 21.349 21.349">
  <g id="_150488" data-name="150488" opacity="0.5">
    <path id="Path_2331" data-name="Path 2331" d="M10.674,0A10.674,10.674,0,1,0,21.349,10.674,10.686,10.686,0,0,0,10.674,0Zm0,19.824a9.149,9.149,0,1,1,9.149-9.149A9.16,9.16,0,0,1,10.674,19.824Z" fill="#fff"/>
    <path id="Path_2332" data-name="Path 2332" d="M91.516,84.974a.762.762,0,0,0-1.078,0l-2.193,2.193-2.193-2.193a.762.762,0,0,0-1.078,1.078l2.193,2.193-2.193,2.193a.762.762,0,0,0,1.078,1.078l2.193-2.193,2.193,2.193a.762.762,0,0,0,1.078-1.078l-2.193-2.193,2.193-2.193A.762.762,0,0,0,91.516,84.974Z" transform="translate(-77.571 -77.571)" fill="#fff"/>
  </g>
</svg>
