<svg xmlns="http://www.w3.org/2000/svg" width="14.644" height="15.301" viewBox="0 0 14.644 15.301">
  <g id="_121-paste" data-name="121-paste" transform="translate(-11)">
    <g id="Group_262" data-name="Group 262" transform="translate(11)">
      <g id="Group_261" data-name="Group 261" transform="translate(0)">
        <path id="Path_407" data-name="Path 407" d="M25.046,11.087a.6.6,0,0,0,.6-.6V7.74a1.8,1.8,0,0,0-1.793-1.793H22.685V3.586A2.394,2.394,0,0,0,20.294,1.2H18.874A1.731,1.731,0,0,0,17.225,0H16.46a1.731,1.731,0,0,0-1.648,1.2H13.391A2.394,2.394,0,0,0,11,3.586V12.91A2.394,2.394,0,0,0,13.391,15.3h2.63a.6.6,0,0,0,0-1.2h-2.63a1.2,1.2,0,0,1-1.2-1.2V3.586a1.2,1.2,0,0,1,1.2-1.2h.06V4.154a.6.6,0,0,0,.6.6H19.7a.6.6,0,0,0,.6-.6V2.391a1.2,1.2,0,0,1,1.2,1.2V5.947H19.547A1.8,1.8,0,0,0,17.754,7.74v5.768A1.8,1.8,0,0,0,19.547,15.3l4.3,0a1.8,1.8,0,0,0,1.793-1.793.6.6,0,0,0-1.2,0,.6.6,0,0,1-.6.6l-4.3,0a.6.6,0,0,1-.6-.6V7.74a.6.6,0,0,1,.6-.6h4.3a.6.6,0,0,1,.6.6V10.49A.6.6,0,0,0,25.046,11.087ZM19.1,3.556H14.646V2.391h.628a.6.6,0,0,0,.58-.453l.084-.335A.538.538,0,0,1,16.46,1.2h.765a.538.538,0,0,1,.523.408l.084.335a.6.6,0,0,0,.58.453H19.1Z" transform="translate(-11)" fill="#171725"/>
        <path id="Path_408" data-name="Path 408" d="M319.51,279H317.6a.6.6,0,1,0,0,1.2h1.913a.6.6,0,1,0,0-1.2Z" transform="translate(-307.855 -270.662)" fill="#171725"/>
        <path id="Path_409" data-name="Path 409" d="M319.51,349H317.6a.6.6,0,0,0,0,1.2h1.913a.6.6,0,0,0,0-1.2Z" transform="translate(-307.855 -338.57)" fill="#171725"/>
      </g>
    </g>
  </g>
</svg>
