<svg xmlns="http://www.w3.org/2000/svg" width="14.527" height="14.527" viewBox="0 0 14.527 14.527">
  <g id="_3083026" data-name="3083026" transform="translate(0 0)">
    <path id="Path_2278" data-name="Path 2278" d="M14.36,12.412l-1.518-1.286-.62.732.52.44H9.954a6.636,6.636,0,0,0,3.185-5.674H12.18a5.644,5.644,0,0,1-5.611,5.664,5.664,5.664,0,0,1,0-11.328,5.575,5.575,0,0,1,5,3.088l-.894-.287-.293.913,1.875.6a.471.471,0,0,0,.62-.381l.32-2-.947-.151-.071.441A6.633,6.633,0,0,0,6.569,0,6.631,6.631,0,0,0,3.18,12.293H.048v.959l12.675.005-.642.533.613.738,1.663-1.381a.485.485,0,0,0,0-.735Z" fill="#fff"/>
    <g id="Group_1221" data-name="Group 1221" transform="translate(3.245 3.321)">
      <path id="Path_2279" data-name="Path 2279" d="M125.684,108.312l1.008.582a2.188,2.188,0,0,1,1.276-.738v-1.163A3.343,3.343,0,0,0,125.684,108.312Z" transform="translate(-125.028 -106.994)" fill="#fff"/>
      <path id="Path_2280" data-name="Path 2280" d="M104.807,170.861a3.33,3.33,0,0,0,0,2.638l1.008-.582a2.165,2.165,0,0,1,0-1.474Z" transform="translate(-104.535 -168.878)" fill="#fff"/>
      <path id="Path_2281" data-name="Path 2281" d="M224,112.422v1.162a3.324,3.324,0,0,0,0-6.6v1.162a2.173,2.173,0,0,1,0,4.279Z" transform="translate(-220.296 -106.981)" fill="#fff"/>
      <path id="Path_2282" data-name="Path 2282" d="M125.684,259.07a3.343,3.343,0,0,0,2.285,1.318v-1.163a2.188,2.188,0,0,1-1.276-.738Z" transform="translate(-125.028 -253.785)" fill="#fff"/>
    </g>
  </g>
</svg>