<svg xmlns="http://www.w3.org/2000/svg" width="13.556" height="13.556" viewBox="0 0 13.556 13.556">
  <g id="_3083036" data-name="3083036" transform="translate(0)">
    <g id="Group_1238" data-name="Group 1238" transform="translate(2.082 1.979)">
      <g id="Group_1232" data-name="Group 1232">
        <path id="Path_2292" data-name="Path 2292" d="M74.752,71.94H72.3a.434.434,0,0,1-.434-.435V68.76a.434.434,0,0,1,.434-.435h2.456a.434.434,0,0,1,.434.435v2.746A.434.434,0,0,1,74.752,71.94Zm-2.021-.869h1.587V69.194H72.731Z" transform="translate(-71.862 -68.325)" fill="#fff"/>
      </g>
      <g id="Group_1233" data-name="Group 1233" transform="translate(4.286 0.272)">
        <path id="Path_2293" data-name="Path 2293" d="M219.825,77.7h1.227v.869h-1.227Z" transform="translate(-219.825 -77.698)" fill="#fff"/>
      </g>
      <g id="Group_1234" data-name="Group 1234" transform="translate(4.296 2.456)">
        <path id="Path_2294" data-name="Path 2294" d="M220.156,153.108h1.227v.869h-1.227Z" transform="translate(-220.156 -153.108)" fill="#fff"/>
      </g>
      <g id="Group_1235" data-name="Group 1235" transform="translate(0.066 4.749)">
        <path id="Path_2295" data-name="Path 2295" d="M0,0H5.451V.869H0Z" transform="translate(0.003 0) rotate(0.229)" fill="#fff"/>
      </g>
      <g id="Group_1236" data-name="Group 1236" transform="translate(0.073 6.682)">
        <path id="Path_2296" data-name="Path 2296" d="M0,0H4.293V.869H0Z" transform="translate(0.003 0) rotate(0.229)" fill="#fff"/>
      </g>
      <g id="Group_1237" data-name="Group 1237" transform="translate(0.064 8.624)">
        <path id="Path_2297" data-name="Path 2297" d="M0,0H4.206V.869H0Z" transform="translate(0.004 0) rotate(0.286)" fill="#fff"/>
      </g>
    </g>
    <g id="Group_1241" data-name="Group 1241" transform="translate(0)">
      <g id="Group_1239" data-name="Group 1239" transform="translate(0)">
        <path id="Path_2298" data-name="Path 2298" d="M9.322,13.556H.434A.434.434,0,0,1,0,13.122V.435A.434.434,0,0,1,.434,0H9.322a.434.434,0,0,1,.434.435V2.777H8.888V.869H.869V12.687H8.888V11.515h.869v1.607A.434.434,0,0,1,9.322,13.556Z" transform="translate(0)" fill="#fff"/>
      </g>
      <g id="Group_1240" data-name="Group 1240" transform="translate(8.888 3.415)">
        <path id="Path_2299" data-name="Path 2299" d="M306.822,117.882h.869v.846h-.869Z" transform="translate(-306.822 -117.882)" fill="#fff"/>
      </g>
      <path id="Path_2300" data-name="Path 2300" d="M250.432,103.821l-1.028-.7a.848.848,0,0,0-1.167.222l-3.549,5.221a.434.434,0,0,0-.072.189l-.291,2.254a.439.439,0,0,0,.641.436l1.989-1.1a.434.434,0,0,0,.149-.136l3.549-5.221A.84.84,0,0,0,250.432,103.821Zm-1.492.036.98.666-.519.763-.98-.667Zm-2.495,5.778-1.148.634.168-1.3,2.468-3.63.98.667Z" transform="translate(-237.244 -99.996)" fill="#fff"/>
    </g>
  </g>
</svg>
