<svg xmlns="http://www.w3.org/2000/svg" width="14" height="14.959" viewBox="0 0 14 14.959">
  <g id="_3082729" data-name="3082729" transform="translate(-15)">
    <g id="Group_1259" data-name="Group 1259" transform="translate(17.562)">
      <path id="Path_2308" data-name="Path 2308" d="M100.936,1.822a1.056,1.056,0,0,1-1.057,1.055H96.2A1.056,1.056,0,0,1,95.14,1.822V1.055A1.056,1.056,0,0,1,96.2,0h3.682a1.056,1.056,0,0,1,1.057,1.055Zm-.961-.767a.1.1,0,0,0-.1-.1H96.2a.1.1,0,0,0-.1.1v.767a.1.1,0,0,0,.1.1h3.682a.1.1,0,0,0,.1-.1Z" transform="translate(-95.14)" fill="#fff"/>
      <g id="Group_1258" data-name="Group 1258" transform="translate(3.074 4.922)">
        <g id="Group_1255" data-name="Group 1255" transform="translate(0 2.876)">
          <path id="Path_2309" data-name="Path 2309" d="M191.308,243.978h3.426v.959h-3.426Z" transform="translate(-191.308 -243.978)" fill="#fff"/>
        </g>
        <g id="Group_1256" data-name="Group 1256">
          <path id="Path_2310" data-name="Path 2310" d="M191.308,153.986h3.426v.959h-3.426Z" transform="translate(-191.308 -153.986)" fill="#fff"/>
        </g>
        <g id="Group_1257" data-name="Group 1257" transform="translate(0 5.785)">
          <path id="Path_2311" data-name="Path 2311" d="M191.308,334.97h1.6v.959h-1.6Z" transform="translate(-191.308 -334.97)" fill="#fff"/>
        </g>
      </g>
    </g>
    <g id="Group_1260" data-name="Group 1260" transform="translate(15 0.959)">
      <path id="Path_2312" data-name="Path 2312" d="M265.7,284.09a3.036,3.036,0,1,1,3.042-3.036A3.043,3.043,0,0,1,265.7,284.09Zm0-5.16a2.124,2.124,0,1,0,2.128,2.124A2.129,2.129,0,0,0,265.7,278.93Z" transform="translate(-254.738 -270.09)" fill="#fff"/>
      <path id="Path_2313" data-name="Path 2313" d="M304.231,35.718h-.961V31.135a.191.191,0,0,0-.177-.179H302.5V30h.592a1.146,1.146,0,0,1,1.137,1.138Z" transform="translate(-293.312 -29.997)" fill="#fff"/>
      <path id="Path_2314" data-name="Path 2314" d="M326.545,230.979h.961v.831h-.961Z" transform="translate(-316.587 -224.555)" fill="#fff"/>
      <path id="Path_2315" data-name="Path 2315" d="M22.428,43.2H16.122A1.126,1.126,0,0,1,15,42.071V31.135A1.133,1.133,0,0,1,16.122,30h.7v.959h-.7a.177.177,0,0,0-.161.179V42.071a.166.166,0,0,0,.161.167h6.307V43.2Z" transform="translate(-15 -29.997)" fill="#fff"/>
      <path id="Path_2316" data-name="Path 2316" d="M312.969,339.738l-.869-.883.685-.673.525.533,1.054-1.078.687.67-1.4,1.431A.483.483,0,0,1,312.969,339.738Z" transform="translate(-302.604 -327.803)" fill="#fff"/>
    </g>
    <g id="Group_1261" data-name="Group 1261" transform="translate(16.633 3.807)">
      <path id="Path_2317" data-name="Path 2317" d="M67.012,302.616l-.933-1.014.708-.648.579.63,1.376-1.5.708.648-1.73,1.88A.513.513,0,0,1,67.012,302.616Z" transform="translate(-66.079 -294.303)" fill="#fff"/>
      <path id="Path_2318" data-name="Path 2318" d="M67.012,212.625l-.933-1.014.708-.648.579.63,1.376-1.5.708.648-1.73,1.88A.513.513,0,0,1,67.012,212.625Z" transform="translate(-66.079 -207.189)" fill="#fff"/>
      <path id="Path_2319" data-name="Path 2319" d="M67.012,121.632l-.933-1.014.708-.648.579.63,1.376-1.5.708.648-1.73,1.88A.513.513,0,0,1,67.012,121.632Z" transform="translate(-66.079 -119.104)" fill="#fff"/>
    </g>
  </g>
</svg>
