<svg id="Group_252" data-name="Group 252" xmlns="http://www.w3.org/2000/svg" xmlns:xlink="http://www.w3.org/1999/xlink" width="274.792" height="200" viewBox="0 0 274.792 200">
  <defs>
    <clipPath id="clip-path">
      <rect id="Rectangle_47" data-name="Rectangle 47" width="274.792" height="200" fill="none"/>
    </clipPath>
    <clipPath id="clip-path-2">
      <rect id="Rectangle_46" data-name="Rectangle 46" width="274.791" height="200" fill="none"/>
    </clipPath>
    <clipPath id="clip-path-3">
      <rect id="Rectangle_25" data-name="Rectangle 25" width="11.911" height="11.911" fill="none"/>
    </clipPath>
  </defs>
  <g id="Group_251" data-name="Group 251" clip-path="url(#clip-path)">
    <g id="Group_250" data-name="Group 250" transform="translate(0 0)">
      <g id="Group_249" data-name="Group 249" clip-path="url(#clip-path-2)">
        <g id="Group_248" data-name="Group 248" transform="translate(133.725 91.479)" opacity="0.5">
          <g id="Group_247" data-name="Group 247">
            <g id="Group_246" data-name="Group 246" clip-path="url(#clip-path-3)">
              <path id="Path_304" data-name="Path 304" d="M1865.158,1273.722a5.956,5.956,0,1,1-5.956-5.956,5.956,5.956,0,0,1,5.956,5.956" transform="translate(-1853.247 -1267.767)" fill="#072542"/>
            </g>
          </g>
        </g>
        <path id="Path_305" data-name="Path 305" d="M233.456,573.811,49.84,614.111a16.14,16.14,0,0,1-6.92-31.53l183.616-40.3a16.14,16.14,0,0,1,6.92,31.53" transform="translate(-28.054 -502.8)" fill="#ecf3fe"/>
        <path id="Path_306" data-name="Path 306" d="M694.8,31.906,517.054,70.916a16.14,16.14,0,1,1-6.92-31.53L687.875.376a16.14,16.14,0,0,1,19.225,12.3h0a16.14,16.14,0,0,1-12.3,19.225" transform="translate(-461.556 0.003)" fill="#ecf3fe"/>
        <path id="Path_307" data-name="Path 307" d="M722.653,859.343,515.965,904.706a16.14,16.14,0,0,1-19.225-12.3h0a16.14,16.14,0,0,1,12.3-19.225l206.688-45.364a16.14,16.14,0,1,1,6.92,31.53" transform="translate(-460.545 -767.729)" fill="#ecf3fe"/>
        <path id="Path_308" data-name="Path 308" d="M234.305,1401.922,19.6,1449.044a16.14,16.14,0,0,1-6.92-31.53l214.7-47.122a16.14,16.14,0,0,1,19.225,12.3h0a16.14,16.14,0,0,1-12.3,19.225" transform="translate(0 -1271.157)" fill="#ecf3fe"/>
        <path id="Path_309" data-name="Path 309" d="M1307.1,692.589A53.033,53.033,0,1,1,1267,629.212a53.034,53.034,0,0,1,40.106,63.377" transform="translate(-1115.561 -582.6)" fill="#fff"/>
        <path id="Path_310" data-name="Path 310" d="M1075.667,423.639a66.865,66.865,0,1,0,66.865,66.865,66.866,66.866,0,0,0-66.865-66.865m0,115.4a48.539,48.539,0,1,1,48.538-48.539,48.539,48.539,0,0,1-48.538,48.539" transform="translate(-936.01 -393.07)" fill="#0070ac"/>
        <path id="Path_311" data-name="Path 311" d="M1004.913,848.19l-.672-.01a66.785,66.785,0,0,1,12.442-38l.547.39a66.116,66.116,0,0,0-12.318,37.618" transform="translate(-931.778 -751.721)" fill="#041c30"/>
        <path id="Path_312" data-name="Path 312" d="M1226,1943.049a67.381,67.381,0,0,1-16.5-14.732l.524-.421a66.71,66.71,0,0,0,16.339,14.586Z" transform="translate(-1122.226 -1788.783)" fill="#041c30"/>
        <path id="Path_313" data-name="Path 313" d="M1903.53,2224.648c-.826,0-1.661-.015-2.484-.045l.024-.672c.814.03,1.642.045,2.459.045a66.374,66.374,0,0,0,22.1-3.759l.223.634a67.049,67.049,0,0,1-22.324,3.8" transform="translate(-1763.872 -2060.012)" fill="#041c30"/>
        <path id="Path_314" data-name="Path 314" d="M1845,494.468l-.667-.082a67.455,67.455,0,0,0,.5-8.2,66.589,66.589,0,0,0-78.63-65.432l-.121-.661a67.807,67.807,0,0,1,12.222-1.109,67.145,67.145,0,0,1,67.2,67.2,68.139,68.139,0,0,1-.506,8.285" transform="translate(-1638.647 -388.749)" fill="#041c30"/>
        <path id="Path_315" data-name="Path 315" d="M1344.063,753l-.555-.468a48.176,48.176,0,1,0-85.025-31.034,48.728,48.728,0,0,0,.574,7.46l-.717.112a49.439,49.439,0,0,1-.583-7.571,48.914,48.914,0,1,1,86.306,31.5" transform="translate(-1167.001 -624.061)" fill="#041c30"/>
        <path id="Path_316" data-name="Path 316" d="M1396.091,1726.045a48.6,48.6,0,0,1-20.952-7.349,49.414,49.414,0,0,1-15.289-15.445l.616-.384a47.876,47.876,0,0,0,35.7,22.457Z" transform="translate(-1261.728 -1579.993)" fill="#041c30"/>
        <path id="Path_317" data-name="Path 317" d="M2382.126,1885.25l5.172-3.72,12.067,2.9,2.268,7.167s-1,2.722-.726,3.176,3.992,9.345,3.992,9.345l-18.236,1-7.984-3.992Z" transform="translate(-2207.04 -1745.764)" fill="#1f3a6f"/>
        <path id="Path_318" data-name="Path 318" d="M2474.237,1882.8l13.337,5.353-.363,7.8,6.351,8.347-3.992-9.708.635-3.176-2.268-6.986-11.976-2.9Z" transform="translate(-2295.704 -1745.764)" fill="#fff"/>
        <path id="Path_319" data-name="Path 319" d="M2381.257,1900.449l-8.322-4.161,3.537-16.289,5.419-3.9,12.428,2.99,2.367,7.481-.043.116a10.432,10.432,0,0,0-.746,2.881c.338.613,3.628,8.471,4.006,9.375l.2.474Zm-7.493-4.558,7.646,3.823,17.626-.965c-1.482-3.539-3.58-8.5-3.77-8.824-.131-.218-.194-.616.224-2.046.166-.568.349-1.1.43-1.323l-2.169-6.855-11.706-2.816-4.923,3.541Zm22.136-6.314Z" transform="translate(-2201.711 -1740.727)" fill="#041c30"/>
        <rect id="Rectangle_26" data-name="Rectangle 26" width="21.049" height="5.988" transform="translate(173.635 184.94)" fill="#072542"/>
        <path id="Path_320" data-name="Path 320" d="M2620.075,2666.113a61.365,61.365,0,0,1-1.724,5.9s-2.449-.544-2.812-1.361-2.994-.817-2.994-.817" transform="translate(-2424.031 -2473.734)" fill="#fff"/>
        <path id="Path_321" data-name="Path 321" d="M2679.283,2671.919a5.349,5.349,0,0,1-1.063-.3c-.025-.061.065-5.141.065-5.141l2.813-.363Z" transform="translate(-2484.963 -2473.734)" fill="#072542"/>
        <path id="Path_322" data-name="Path 322" d="M2618.35,2671.115a.367.367,0,0,1-.079-.009c-.439-.1-2.649-.631-3.065-1.568-.16-.358-1.505-.6-2.663-.6v-.726a10.99,10.99,0,0,1,1.413.106c1.08.157,1.705.46,1.913.926.175.395,1.342.84,2.242,1.077a51.1,51.1,0,0,0,1.6-5.466h.726a53.445,53.445,0,0,1-1.742,6.012.363.363,0,0,1-.344.248" transform="translate(-2424.03 -2472.567)" fill="#041c30"/>
        <path id="Path_323" data-name="Path 323" d="M2482.713,1975.571l-1.633,8.075-4.355,1.542-4.9-1.633-1.361-8.982,5.262,1.27Z" transform="translate(-2292.203 -1832.093)" fill="#fdc8aa"/>
        <path id="Path_324" data-name="Path 324" d="M2480.86,1979.343l-4.173,1.814-.182,6.169-1.089-.454-1.179-8.528,4.99,1.179Z" transform="translate(-2295.704 -1835.593)" fill="#fff"/>
        <path id="Path_325" data-name="Path 325" d="M2320.981,2165.689l6.989,2.21,4.352,9.675,1.905,10.434-.272,2.45-6.9,1.179-.816-3.72,2.087-3.266-2.087-7.349-.181,6.623-17.873.272-1.724-6.351-.635,3.357-.635,7.621-5.262,2.631-1.724-3.448,2.087-10.252,2.9-8.347,8.891-3.176" transform="translate(-2132.377 -2009.419)" fill="#f4b545"/>
        <path id="Path_326" data-name="Path 326" d="M2472.209,1980.539l-5.131-1.839-1.477-9.552,5.648,1.387,7.39-.384-.082.451c0,.02-.368,2.022-.761,4.02-.823,4.185-.947,4.268-1.119,4.383l-.04.026Zm-4.48-2.377,4.486,1.608,4-1.363c.259-.742,1.037-4.738,1.541-7.483l-6.581.342-.052-.013-4.643-1.14Z" transform="translate(-2287.69 -1827.06)" fill="#041c30"/>
        <path id="Path_327" data-name="Path 327" d="M2488.9,2109.109l3.085,1,2.631-.907,1.361,3.992-4.083,3.81-5.081-3.266Z" transform="translate(-2307.37 -1956.922)" fill="#fdc8aa"/>
        <path id="Path_328" data-name="Path 328" d="M2487.578,2109.437l-.65,6.023-2.631-1.724,2.087-4.627Z" transform="translate(-2305.036 -1956.922)" fill="#fff"/>
        <path id="Path_329" data-name="Path 329" d="M2592.947,2166.318l-1.777,1.769,6.9,3.448,4.355,7.893,1.724,8.8-1.633,1.542,1.361,1.361,1.905-.907.182-1.724-1.905-10.343-4.355-9.617Z" transform="translate(-2404.199 -2010.003)" fill="#fff"/>
        <path id="Path_330" data-name="Path 330" d="M2325.871,2487.6l4.99-2.541,1.542,5.625Z" transform="translate(-2158.042 -2305.74)" fill="#fdc8aa"/>
        <path id="Path_331" data-name="Path 331" d="M2297.872,2337.946l-.091,9.8,1.542,2.631-1.591.841-2.038-3.472Z" transform="translate(-2130.044 -2169.246)" fill="#fff"/>
        <path id="Path_332" data-name="Path 332" d="M2485.887,2111.9l-5.49-3.493,2.4-5.187.659.3-2.135,4.611,4.491,2.858,3.788-3.376-1.333-3.856.686-.237,1.49,4.313Z" transform="translate(-2301.419 -1951.461)" fill="#041c30"/>
        <path id="Path_333" data-name="Path 333" d="M2322.393,2187.552a.363.363,0,0,1-.354-.285l-.816-3.72a.361.361,0,0,1,.049-.273l2-3.129-1.4-4.913-.117,4.255a.363.363,0,0,1-.357.353l-17.873.272h-.006a.363.363,0,0,1-.35-.268l-1.311-4.828-.338,1.788-.634,7.6a.362.362,0,0,1-.2.294l-5.262,2.631a.363.363,0,0,1-.487-.162l-1.724-3.448a.362.362,0,0,1-.031-.235l2.087-10.252a.345.345,0,0,1,.013-.047l2.9-8.347a.362.362,0,0,1,.221-.223l8.891-3.175.244.683-8.728,3.117-2.838,8.16-2.057,10.105,1.505,3.011,4.755-2.378.618-7.417a.313.313,0,0,1,.005-.037l.635-3.357a.363.363,0,0,1,.707-.028l1.65,6.079,17.243-.263.172-6.275a.363.363,0,0,1,.712-.089l2.086,7.349a.362.362,0,0,1-.043.295l-2.006,3.139.71,3.235,6.284-1.075.236-2.125-1.888-10.338-4.268-9.486-6.833-2.162.219-.692,6.989,2.211a.363.363,0,0,1,.222.2l4.352,9.675a.383.383,0,0,1,.026.084l1.905,10.433a.363.363,0,0,1,0,.105l-.272,2.45a.363.363,0,0,1-.3.318l-6.9,1.179a.379.379,0,0,1-.062.005" transform="translate(-2127.71 -2004.971)" fill="#041c30"/>
        <path id="Path_334" data-name="Path 334" d="M2223.528,2524.193l-1.069,2.7h0l-.654,1.654c-.454-.272-8.075,0-13.972-.454s-18.055-3.992-15.6-10.706a3.839,3.839,0,0,1,2.187-2.323c4.658-1.962,14.053,3.23,14.053,3.23,1.18,3.629,15.061,5.9,15.061,5.9" transform="translate(-2033.745 -2333.175)" fill="#fff"/>
        <path id="Path_335" data-name="Path 335" d="M2246.861,2524.193l-1.069,2.7h0c-2.431-.078-8.158.016-12.812-.342-5.9-.454-18.054-3.992-15.6-10.706a4.368,4.368,0,0,1,.372-.78c4.658-1.962,14.053,3.23,14.053,3.23,1.179,3.629,15.061,5.9,15.061,5.9" transform="translate(-2057.077 -2333.175)" fill="#1f3a6f"/>
        <path id="Path_336" data-name="Path 336" d="M2217.127,2524.242a.363.363,0,0,1-.161-.038c-.3-.086-2.08-.1-3.967-.115-2.787-.021-6.6-.051-9.872-.3a33.148,33.148,0,0,1-8.395-1.882c-2.385-.878-5.539-2.408-7.022-4.712a4.963,4.963,0,0,1-.5-4.6,4.209,4.209,0,0,1,2.576-2.608c4.816-1.8,13.8,3.112,14.18,3.322a.363.363,0,0,1,.169.206c.911,2.8,10.974,5.03,14.774,5.651a.363.363,0,0,1,.279.492l-1.724,4.355a.362.362,0,0,1-.337.229m-.153-.035Zm-.034-.017h0m-24.679-13.875a6.36,6.36,0,0,0-2.222.352,3.469,3.469,0,0,0-2.148,2.177,4.27,4.27,0,0,0,.43,3.956c2.393,3.716,10.131,5.9,14.862,6.264,3.243.25,7.045.279,9.822.3,2.308.018,3.377.034,3.9.1l1.447-3.656c-1.055-.188-3.839-.717-6.685-1.52-4.781-1.349-7.528-2.83-8.167-4.4-.908-.484-6.861-3.566-11.235-3.566" transform="translate(-2029.067 -2328.506)" fill="#041c30"/>
        <path id="Path_337" data-name="Path 337" d="M2444.5,2677.694l-3.916.792-1.55-4.194,4.083-.635Z" transform="translate(-2263.038 -2480.733)" fill="#fdc8aa"/>
        <rect id="Rectangle_27" data-name="Rectangle 27" width="1.584" height="0.726" transform="translate(179.993 196.835) rotate(-13.248)" fill="#041c30"/>
        <rect id="Rectangle_28" data-name="Rectangle 28" width="4.741" height="0.726" transform="translate(175.028 193.473) rotate(-9.241)" fill="#041c30"/>
        <path id="Path_338" data-name="Path 338" d="M2391.265,2664.855l4.718,1.724s1.27,2.359-.181,3.357-5.806,1.724-5.806,1.724l.091-6.623Z" transform="translate(-2217.54 -2472.567)" fill="#fff"/>
        <path id="Path_339" data-name="Path 339" d="M2389.2,2663.6c0,.091,1.27,6.442,1.27,6.442l-2.812.635-.181-.181.091-6.714Z" transform="translate(-2215.207 -2471.4)" fill="#072542"/>
        <path id="Path_340" data-name="Path 340" d="M2659.1,2432.247l4.627,6.169-6.17,2.177-2.268-6.714Z" transform="translate(-2463.696 -2256.742)" fill="#fdc8aa"/>
        <line id="Line_11" data-name="Line 11" x1="3.538" y1="3.811" transform="translate(195.953 177.409)" fill="#fff"/>
        <path id="Path_341" data-name="Path 341" d="M2651.535,2436.581l-2.493-7.38,4.381-1.878,5.095,6.793Zm-1.591-6.977,2.043,6.047,5.356-1.89-4.159-5.546Z" transform="translate(-2457.895 -2252.175)" fill="#041c30"/>
        <path id="Path_342" data-name="Path 342" d="M2506.2,2497.1l-14.425,5.171-.709-1.628-1.74-4a91.525,91.525,0,0,0,11.341-5.081c2.6-1.573,9.529-8.353,14.376-8.488a3.965,3.965,0,0,1,3.859,2.409c3.72,7.258-12.7,11.613-12.7,11.613" transform="translate(-2309.702 -2303.907)" fill="#fff"/>
        <path id="Path_343" data-name="Path 343" d="M2503.478,2496.22l-12.413,4.45-1.74-4a91.461,91.461,0,0,0,11.341-5.081c2.6-1.573,9.529-8.353,14.376-8.487a4.907,4.907,0,0,1,1.138,1.5c3.72,7.258-12.7,11.613-12.7,11.613" transform="translate(-2309.702 -2303.932)" fill="#1f3a6f"/>
        <path id="Path_344" data-name="Path 344" d="M2487.108,2498a.364.364,0,0,1-.333-.218l-2.45-5.625a.363.363,0,0,1,.25-.5,90.892,90.892,0,0,0,11.235-5.038c.667-.4,1.66-1.186,2.809-2.091,3.628-2.858,9.111-7.177,12.929-6.344a4.413,4.413,0,0,1,3.009,2.5,4.656,4.656,0,0,1,.17,4.191c-.943,2.117-3.444,4.1-7.433,5.89a42.072,42.072,0,0,1-5.653,2.044l-14.411,5.167a.37.37,0,0,1-.122.021m-1.961-5.776,2.158,4.957,14.106-5.057.029-.009c.105-.028,10.538-2.844,12.625-7.532a3.913,3.913,0,0,0-.153-3.564,3.677,3.677,0,0,0-2.518-2.123c-3.483-.76-8.8,3.431-12.325,6.2a35.323,35.323,0,0,1-2.882,2.142,62.505,62.505,0,0,1-6.976,3.347c-1.371.578-2.528,1.038-3.095,1.261-.456.179-.762.3-.97.375m-.489-.575h0Zm0,0h0Z" transform="translate(-2305.036 -2299.27)" fill="#041c30"/>
        <path id="Path_345" data-name="Path 345" d="M2393.4,2380.7l-26.039.091v14.789l26.039.091Z" transform="translate(-2196.541 -2208.911)" fill="#3b82f4"/>
        <path id="Path_346" data-name="Path 346" d="M2391.068,2379.438l-26.039,6.215-.181-6.215Z" transform="translate(-2194.207 -2207.744)" fill="#fff"/>
        <path id="Path_347" data-name="Path 347" d="M2389.1,2390.013h-26.764v-15.6H2389.1Zm-26.038-.726h25.313v-14.153H2363.06Z" transform="translate(-2191.875 -2203.077)" fill="#041c30"/>
        <path id="Path_348" data-name="Path 348" d="M2385.329,2667.356a.363.363,0,0,1-.363-.368l.091-6.623a.363.363,0,0,1,.308-.354l1.179-.181a.36.36,0,0,1,.18.018l4.718,1.724a.364.364,0,0,1,.2.169c.058.108,1.4,2.659-.3,3.828-1.5,1.032-5.771,1.752-5.953,1.783a.348.348,0,0,1-.06,0m.449-6.674-.081,5.876c1.12-.209,4.123-.825,5.232-1.588,1.006-.692.339-2.314.126-2.767l-4.494-1.642Z" transform="translate(-2212.874 -2467.9)" fill="#041c30"/>
        <path id="Path_349" data-name="Path 349" d="M673.681,2502.658l4.99,3.448.817,5.353,5.262,2.359,1,2.54-9.163-.363-7.893-7.984Z" transform="translate(-620.44 -2322.073)" fill="#fff"/>
        <path id="Path_350" data-name="Path 350" d="M685.613,2534.551h-4.446l-6.261-8.96-3.427,3.615,7.781,7.962,9.256.468-1.18-2.631Z" transform="translate(-623.027 -2343.352)" fill="#072542"/>
        <path id="Path_351" data-name="Path 351" d="M1214.625,2580.194l-5.277,1.3,3.085,5.807,13.609-3.176-.272-2.177-9.98-.454Z" transform="translate(-1122.085 -2394.015)" fill="#fff"/>
        <path id="Path_352" data-name="Path 352" d="M1238.364,2616.109l-15.473.535,2.2,3.889,13.337-3.176Z" transform="translate(-1134.651 -2427.338)" fill="#072542"/>
        <path id="Path_353" data-name="Path 353" d="M1255.079,1568.451l-9.708.091-.817,2.178,9.345.726Z" transform="translate(-1154.751 -1455.276)" fill="#fdc8aa"/>
        <path id="Path_354" data-name="Path 354" d="M1264.566,1533.408l-9.786.145.532-1.234s4.536-1.724,4.536-1.633a9.425,9.425,0,0,0,.363.907l-.817,1.089,5.444.182Z" transform="translate(-1164.239 -1420.233)" fill="#fff"/>
        <path id="Path_355" data-name="Path 355" d="M714.861,1293.909l1.633.454,2,4.99,11.522,8.438,15.242,3.72-1.179,4.264-17.329-1.814-7.53-5.172-.045,12.659-3.856,12.2-10.161-1.724,3.357-38.014,1.452-.817Z" transform="translate(-654.272 -1199.787)" fill="#f4b545"/>
        <path id="Path_356" data-name="Path 356" d="M818.315,1303.151l3.175,8.256,13.065,8.347,15.181,2.949.485-1.753-15.212-3.736-11.522-8.528-1.815-4.99Z" transform="translate(-759.267 -1209.119)" fill="#fff"/>
        <path id="Path_357" data-name="Path 357" d="M894.065,1515.4l4.446,12.248-8.528-.181.726-2-.091-12.339Z" transform="translate(-825.764 -1403.944)" fill="#1f3a6f"/>
        <path id="Path_358" data-name="Path 358" d="M922.093,1528.462a1.111,1.111,0,0,1,.044.151c.39,1.471,3.2,13.229,3.2,13.229l2.964.03-4.446-12.248" transform="translate(-855.557 -1418.172)" fill="#fff"/>
        <path id="Path_359" data-name="Path 359" d="M772.113,1773.042l-6.351,1.815-13.065-23.77-14.426,20.595-6.714-4.446,9.98-20.776-6.744-26.371,5.02.877,3.243-10.184,7.644-.25Z" transform="translate(-678.771 -1587.104)" fill="#1f3a6f"/>
        <path id="Path_360" data-name="Path 360" d="M815.65,1997.205l4.99,18.962L810.651,2037l.855.566,14.577-20.676Z" transform="translate(-752.157 -1853.093)" fill="#fff"/>
        <path id="Path_361" data-name="Path 361" d="M882.439,1717.1l4.808,2.268,23.317,58.7,1.633-.544-21.5-61.966h-7.621Z" transform="translate(-818.765 -1591.77)" fill="#fff"/>
        <path id="Path_362" data-name="Path 362" d="M825.794,1094.432l-2.45,1.724,3.448,9.436,1.905-.635Z" transform="translate(-763.934 -1015.461)" fill="#fff"/>
        <path id="Path_363" data-name="Path 363" d="M770.432,1489.238s-2.722,15.151-2.813,15.424-4.627,9.98-4.627,9.98l5.9,1,3.992-12.339v-12.52Z" transform="translate(-707.937 -1381.779)" fill="#fff"/>
        <path id="Path_364" data-name="Path 364" d="M736.392,1114.549l3.448,9.436-2.359,1.089-.454,3.175-4.9-.817-.907-3.9.817-1.542-2.994-3.629,1.724-1.089,1.905.454Z" transform="translate(-676.437 -1034.127)" fill="#fdc8aa"/>
        <path id="Path_365" data-name="Path 365" d="M821.952,1099.04l-.292-.665,4.926-2.162-2.843-10.629.7-.187,3,11.231Z" transform="translate(-762.372 -1007.077)" fill="#041c30"/>
        <rect id="Rectangle_29" data-name="Rectangle 29" width="0.726" height="5.919" transform="matrix(0.966, -0.258, 0.258, 0.966, 54.254, 88.928)" fill="#041c30"/>
        <rect id="Rectangle_30" data-name="Rectangle 30" width="3.383" height="0.726" transform="translate(60.218 94.254) rotate(-82.833)" fill="#041c30"/>
        <path id="Path_366" data-name="Path 366" d="M833.9,1317.725l-17.553-1.69-11.769-7.931.406-.6,11.616,7.828,16.761,1.614.965-3.537-14.7-3.489-.058-.042-11.909-8.579-1.872-4.993-4.117-.727.126-.715,4.525.8,1.941,5.175,11.672,8.409,15.292,3.629Z" transform="translate(-743.826 -1201.429)" fill="#041c30"/>
        <path id="Path_367" data-name="Path 367" d="M732.718,1893.485l-7.036-4.69,9.992-21.009-6.654-26.29.7-.178,6.718,26.544-9.834,20.677,5.928,3.952,14.454-20.274.591.421Z" transform="translate(-673.319 -1708.453)" fill="#041c30"/>
        <path id="Path_368" data-name="Path 368" d="M709.293,1329.4l-10.81-1.757,3.48-38.667,1.747-.863.322.651-1.382.683-3.383,37.588,9.525,1.548,3.827-11.976V1304.2h.726v12.525Z" transform="translate(-648.083 -1195.169)" fill="#041c30"/>
        <path id="Path_369" data-name="Path 369" d="M898.942,1552.777H889.85v-.726H897.9l-4.419-11.93.681-.252Z" transform="translate(-825.641 -1428.757)" fill="#041c30"/>
        <path id="Path_370" data-name="Path 370" d="M1208.2,2584.872l-3.324-5.835.631-.359,3.054,5.362,12.783-3.043-.088-1.409-9.826-.622-1.556-1.133.427-.586,1.385,1.008,10.254.649.166,2.658Z" transform="translate(-1117.94 -2391.279)" fill="#041c30"/>
        <path id="Path_371" data-name="Path 371" d="M681.416,2513.908l-9.865-.411-8.1-8.232.242-.254c1.938-2.04,4.874-5.137,5.02-5.312l.556.467c-.187.222-3.759,3.985-4.808,5.09l7.406,7.528,8.436.351-.738-1.752-5.389-2.31-.91-6,.718-.109.85,5.6,5.287,2.266Z" transform="translate(-615.579 -2319.328)" fill="#041c30"/>
        <path id="Path_372" data-name="Path 372" d="M1257.151,1530.508l-9.274-.523.041-.725,8.773.494,1.207-2.716-6.091-.271,1.508-1.32-.166-.442-4.371,1.641-.255-.679,5.051-1.9.6,1.592-.525.459,5.347.238Z" transform="translate(-1157.834 -1414.099)" fill="#041c30"/>
        <path id="Path_373" data-name="Path 373" d="M666.326,993.672l-1.785,1.392-4.57,3.565-1.525-.381-1.78,1.144,3.05,3.558-1.525,2.8-5.845-4.575s-1.271-6.354-1.271-6.482c0-.086,5.972-3.882,9.848-6.338,1.863-1.179,3.242-2.049,3.242-2.049Z" transform="translate(-604.095 -915.132)" fill="#1f3a6f"/>
        <path id="Path_374" data-name="Path 374" d="M792.963,993.672l-1.785,1.392c-.868-1.618-2.641-4.917-3.618-6.714,1.863-1.179,3.242-2.049,3.242-2.049Z" transform="translate(-730.732 -915.132)" fill="#fff"/>
        <path id="Path_375" data-name="Path 375" d="M653.637,999.049l-6.289-4.922-.026-.132c-1.278-6.39-1.278-6.508-1.278-6.553,0-.217.055-.254.724-.7.341-.227.841-.553,1.487-.97,1.087-.7,2.6-1.67,4.5-2.879,3.236-2.058,6.514-4.126,6.546-4.147l.407-.257,2.365,8.069-6.688,5.217-1.545-.386-1.3.834,2.942,3.432Zm-5.63-5.328,5.4,4.229,1.2-2.2-3.158-3.685,2.262-1.454,1.506.376,6.021-4.7-1.956-6.673c-4.719,2.979-11.387,7.215-12.484,7.979.149.811.768,3.928,1.207,6.125" transform="translate(-599.426 -907.886)" fill="#041c30"/>
        <path id="Path_376" data-name="Path 376" d="M897.363,1776.688l-23.521-44.229.641-.341,23.249,43.719,5.955-1.6L882.4,1712.327l.686-.236,21.541,62.642Z" transform="translate(-810.789 -1588.551)" fill="#041c30"/>
        <rect id="Rectangle_31" data-name="Rectangle 31" width="54.617" height="0.726" transform="translate(39.269 193.921)" fill="#041c30"/>
        <rect id="Rectangle_32" data-name="Rectangle 32" width="54.617" height="0.726" transform="translate(150.318 199.274)" fill="#041c30"/>
        <path id="Path_377" data-name="Path 377" d="M1294.99,1327.814c0,.524.008,1.047.027,1.566l8.289,0v-3.132h-8.289c-.019.519-.027,1.04-.027,1.564" transform="translate(-1201.547 -1230.551)" fill="#f4b545"/>
        <path id="Path_378" data-name="Path 378" d="M1287.687,1340.167l-9,0-.013-.349c-.019-.5-.027-1.015-.027-1.579s.009-1.079.027-1.578l.013-.349h5.983v.726h-5.281c-.01.382-.016.778-.016,1.2s.005.821.016,1.2h7.574V1339h.726Z" transform="translate(-1186.382 -1239.886)" fill="#041c30"/>
        <path id="Path_379" data-name="Path 379" d="M1915.355,707.452c-.263,0-.526,0-.788.006s-.519.011-.777.021v8.284h3.13v-8.284c-.258-.01-.518-.016-.777-.021s-.524-.006-.787-.006" transform="translate(-1775.695 -656.404)" fill="#f4b545"/>
        <path id="Path_380" data-name="Path 380" d="M1897.526,729.062h-3.856v-9l.349-.013c.236-.009.485-.016.784-.021.24,0,.493-.006.8-.006s.558,0,.794.006c.3.005.549.012.784.021l.349.013Zm-3.13-.726h2.4v-7.57l-.421-.009c-.231,0-.487-.006-.78-.006s-.546,0-.782.006l-.421.009Z" transform="translate(-1757.028 -668.07)" fill="#041c30"/>
        <path id="Path_381" data-name="Path 381" d="M1913.788,1881.5c.258.01.516.016.776.021s.526.006.79.006.526,0,.787-.006.519-.011.777-.021v-8.284h-3.13Z" transform="translate(-1775.694 -1738.055)" fill="#f4b545"/>
        <path id="Path_382" data-name="Path 382" d="M1898.114,1893.575c-.3,0-.558,0-.8-.007-.289-.005-.545-.012-.783-.021l-.349-.013v-4.768h.726v4.067l.419.01c.234,0,.491.006.783.006s.547,0,.78-.006l.421-.01v-7.57h-.794v-.726h1.52v9l-.349.013c-.237.009-.493.016-.784.021-.238,0-.5.007-.794.007" transform="translate(-1759.362 -1748.555)" fill="#041c30"/>
        <path id="Path_383" data-name="Path 383" d="M2469.088,1326.252l-8.284,0v3.132h8.282c.019-.521.027-1.043.027-1.567s-.008-1.043-.026-1.562" transform="translate(-2283.24 -1230.551)" fill="#f4b545"/>
        <path id="Path_384" data-name="Path 384" d="M2453.454,1340.166h-3.973v-.726h3.272c.01-.383.016-.78.016-1.2,0-.409-.005-.811-.015-1.2l-7.569,0v1.2h-.726v-1.929l9,0,.012.351c.017.5.026,1.034.026,1.575,0,.563-.009,1.081-.027,1.581Z" transform="translate(-2268.074 -1239.884)" fill="#041c30"/>
        <path id="Path_385" data-name="Path 385" d="M1568.335,1336.492l24.785-18.13a2.057,2.057,0,0,0,.446-2.875l-.409-.559a2.058,2.058,0,0,0-2.875-.446l-24.785,18.13a2.058,2.058,0,0,0-.446,2.875l.409.559a2.057,2.057,0,0,0,2.875.446" transform="translate(-1451.753 -1219.264)" fill="#4cd8bd"/>
        <path id="Path_386" data-name="Path 386" d="M1564.35,1340.954l-.447-.53a2.42,2.42,0,0,1,.292-3.411l23.486-19.784a2.42,2.42,0,0,1,3.41.292l.447.53a2.42,2.42,0,0,1-.292,3.41l-19.942,16.8-.468-.555,19.942-16.8a1.694,1.694,0,0,0,.2-2.388l-.446-.53a1.695,1.695,0,0,0-2.388-.2l-23.486,19.784a1.695,1.695,0,0,0-.2,2.388l.446.53Z" transform="translate(-1450.529 -1221.653)" fill="#041c30"/>
        <path id="Path_387" data-name="Path 387" d="M1649.061,965.328l19.07,26.07a1.261,1.261,0,1,0,2.036-1.49l-19.07-26.07a1.262,1.262,0,0,0-2.036,1.49" transform="translate(-1529.844 -893.811)" fill="#072542"/>
        <path id="Path_388" data-name="Path 388" d="M1851.424,1273.453a6.171,6.171,0,1,0,1.337-8.624,6.171,6.171,0,0,0-1.337,8.624" transform="translate(-1716.725 -1172.458)" fill="#3b82f4"/>
        <path id="Path_389" data-name="Path 389" d="M1850.6,1271.567a6.534,6.534,0,1,1,7.372-4.526l-.694-.212a5.808,5.808,0,1,0-6.553,4.023Z" transform="translate(-1712.046 -1167.779)" fill="#041c30"/>
        <path id="Path_390" data-name="Path 390" d="M1925.839,1293.667a2.474,2.474,0,1,0,.536-3.457,2.474,2.474,0,0,0-.536,3.457" transform="translate(-1786.433 -1196.669)" fill="#fff"/>
        <path id="Path_391" data-name="Path 391" d="M1713.647,605.6l-2.237-.748a57.061,57.061,0,0,0-73.923-71.575l-.82-2.212a59.422,59.422,0,0,1,76.98,74.535" transform="translate(-1518.57 -489.316)" fill="#fff"/>
        <path id="Path_392" data-name="Path 392" d="M2360.622,653.505a4.173,4.173,0,1,1-4.174-4.173,4.174,4.174,0,0,1,4.174,4.173" transform="translate(-2182.542 -602.478)" fill="#f4b545"/>
        <path id="Path_393" data-name="Path 393" d="M2389.5,688.581a4.536,4.536,0,1,1,4.536-4.536,4.541,4.541,0,0,1-4.536,4.536m0-8.347a3.811,3.811,0,1,0,3.811,3.811,3.815,3.815,0,0,0-3.811-3.811" transform="translate(-2212.874 -630.476)" fill="#041c30"/>
        <path id="Path_394" data-name="Path 394" d="M1044.543,404.185l-24.133-8.841a1.548,1.548,0,0,1-.921-1.986l5.7-15.556a1.548,1.548,0,0,1,1.986-.921l24.133,8.841a1.548,1.548,0,0,1,.921,1.986l-5.7,15.556a1.548,1.548,0,0,1-1.986.921" transform="translate(-945.838 -349.598)" fill="#f4b545"/>
        <path id="Path_395" data-name="Path 395" d="M1043.047,365.458a1.9,1.9,0,0,1-.655-.117l-18.666-6.838.25-.682,18.665,6.838a1.187,1.187,0,0,0,1.521-.705l5.7-15.556a1.187,1.187,0,0,0-.705-1.521l-24.133-8.841a1.187,1.187,0,0,0-1.521.705l-4.224,11.531-.682-.25,4.224-11.531a1.914,1.914,0,0,1,2.452-1.137L1049.4,346.2a1.913,1.913,0,0,1,1.137,2.452l-5.7,15.556a1.915,1.915,0,0,1-1.8,1.254" transform="translate(-945.096 -312.904)" fill="#041c30"/>
        <path id="Path_396" data-name="Path 396" d="M1098.141,354.789l-10.554-12.5.555-.468L1098.428,354l15.725-2.659.121.716Z" transform="translate(-1009.11 -317.152)" fill="#041c30"/>
        <rect id="Rectangle_33" data-name="Rectangle 33" width="27.76" height="6.138" transform="matrix(0.944, -0.329, 0.329, 0.944, 103.211, 160.454)" fill="#f4b545"/>
        <rect id="Rectangle_34" data-name="Rectangle 34" width="27.76" height="16.665" transform="matrix(0.944, -0.329, 0.329, 0.944, 105.23, 166.25)" fill="#fff"/>
        <path id="Path_397" data-name="Path 397" d="M1407.427,2111.109l-.239-.685,19.018-6.627-7.016-20.136-25.276,8.808,5.274,15.134-.685.239-5.512-15.82.343-.119,26.3-9.166,7.494,21.506Z" transform="translate(-1292.475 -1932.453)" fill="#041c30"/>
        <rect id="Rectangle_35" data-name="Rectangle 35" width="0.726" height="4.476" transform="translate(106.399 155.82) rotate(-19.212)" fill="#041c30"/>
        <rect id="Rectangle_36" data-name="Rectangle 36" width="0.726" height="4.476" transform="translate(119.535 151.243) rotate(-19.212)" fill="#041c30"/>
        <rect id="Rectangle_37" data-name="Rectangle 37" width="5.837" height="2.056" transform="matrix(0.944, -0.329, 0.329, 0.944, 107.441, 167.947)" fill="#072542"/>
        <rect id="Rectangle_38" data-name="Rectangle 38" width="5.837" height="2.056" transform="matrix(0.944, -0.329, 0.329, 0.944, 122.671, 167.412)" fill="#072542"/>
        <rect id="Rectangle_39" data-name="Rectangle 39" width="5.837" height="2.056" transform="matrix(0.944, -0.329, 0.329, 0.944, 115.528, 172.543)" fill="#072542"/>
        <rect id="Rectangle_40" data-name="Rectangle 40" width="7.44" height="21.774" transform="translate(209.989 101.451) rotate(-16.516)" fill="#fff"/>
        <rect id="Rectangle_41" data-name="Rectangle 41" width="7.44" height="15.333" transform="matrix(0.959, -0.284, 0.284, 0.959, 201.208, 110.773)" fill="#fff"/>
        <rect id="Rectangle_42" data-name="Rectangle 42" width="7.44" height="8.982" transform="matrix(0.959, -0.284, 0.284, 0.959, 192.402, 120.009)" fill="#fff"/>
        <rect id="Rectangle_43" data-name="Rectangle 43" width="7.44" height="21.774" transform="matrix(0.959, -0.284, 0.284, 0.959, 212.009, 102.839)" fill="#f4b545"/>
        <rect id="Rectangle_44" data-name="Rectangle 44" width="7.44" height="15.333" transform="translate(203.229 112.161) rotate(-16.516)" fill="#f4b545"/>
        <rect id="Rectangle_45" data-name="Rectangle 45" width="7.44" height="8.982" transform="translate(194.422 121.397) rotate(-16.516)" fill="#f4b545"/>
        <path id="Path_398" data-name="Path 398" d="M2910.307,1395.626l-6.4-21.572,7.48-2.218.206.7-6.785,2.012,5.984,20.18,6.437-1.909-2.992-10.09.7-.206,3.2,10.786Z" transform="translate(-2694.372 -1272.848)" fill="#041c30"/>
        <path id="Path_399" data-name="Path 399" d="M2790.7,1516.16l-.206-.7,3.218-.954-4.153-14-6.437,1.909,2.382,8.031-.7.206-2.588-8.727,7.829-2.321,4.565,15.4Z" transform="translate(-2581.465 -1391.396)" fill="#041c30"/>
        <path id="Path_400" data-name="Path 400" d="M2662.938,1643.7l-2.76-9.307,3.653-1.083.206.7-2.958.877,2.347,7.915,6.437-1.909-2.451-8.263.7-.206,2.656,8.959Z" transform="translate(-2468.228 -1514.627)" fill="#041c30"/>
        <path id="Path_401" data-name="Path 401" d="M259.978,1036.758a4.857,4.857,0,1,1-4.857-4.857,4.856,4.856,0,0,1,4.857,4.857" transform="translate(-232.207 -957.442)" fill="#4cd8bd"/>
        <path id="Path_402" data-name="Path 402" d="M3117.23,2090.488a4.856,4.856,0,1,1-4.856-4.856,4.857,4.857,0,0,1,4.856,4.856" transform="translate(-2883.288 -1935.138)" fill="#4cd8bd"/>
        <path id="Path_403" data-name="Path 403" d="M3083.817,2059.787a5.219,5.219,0,1,1,5.219-5.219,5.226,5.226,0,0,1-5.219,5.219m0-9.713a4.494,4.494,0,1,0,4.494,4.494,4.5,4.5,0,0,0-4.494-4.494" transform="translate(-2856.455 -1901.473)" fill="#041c30"/>
        <path id="Path_404" data-name="Path 404" d="M224.55,1012.29a5.219,5.219,0,1,1,1.586-10.194l-.22.692a4.494,4.494,0,1,0,2.894,5.72l.688.232a5.216,5.216,0,0,1-4.947,3.55" transform="translate(-203.505 -929.56)" fill="#041c30"/>
      </g>
    </g>
  </g>
</svg>
