<svg id="_167-wall-clock" data-name="167-wall-clock" xmlns="http://www.w3.org/2000/svg" width="12.954" height="12.954" viewBox="0 0 12.954 12.954">
  <g id="Group_21" data-name="Group 21" transform="translate(0 0)">
    <g id="Group_20" data-name="Group 20">
      <path id="Path_25" data-name="Path 25" d="M11.057,1.9a6.477,6.477,0,0,0-9.16,9.16,6.48,6.48,0,0,0,7.932.964.506.506,0,1,0-.524-.866A5.514,5.514,0,1,1,11.016,9.51a.506.506,0,0,0,.841.562,6.461,6.461,0,0,0-.8-8.176Z" transform="translate(0 0)" fill="#171725"/>
    </g>
  </g>
  <g id="Group_23" data-name="Group 23" transform="translate(3.967 1.923)">
    <g id="Group_22" data-name="Group 22">
      <path id="Path_26" data-name="Path 26" d="M159.314,76a.506.506,0,0,0-.506.506v3.839L156.952,82.2a.506.506,0,1,0,.716.716l2-2a.506.506,0,0,0,.148-.358V76.506A.506.506,0,0,0,159.314,76Z" transform="translate(-156.804 -76)" fill="#171725"/>
    </g>
  </g>
</svg>
