<svg xmlns="http://www.w3.org/2000/svg" xmlns:xlink="http://www.w3.org/1999/xlink" width="54" height="58.914" viewBox="0 0 54 58.914">
  <defs>
    <clipPath id="clip-path">
      <rect id="Rectangle_24" data-name="Rectangle 24" width="54" height="58.914" fill="#0070ac"/>
    </clipPath>
  </defs>
  <g id="Group_245" data-name="Group 245" transform="translate(0 0)">
    <g id="Group_244" data-name="Group 244" transform="translate(0 0)" clip-path="url(#clip-path)">
      <path id="Path_297" data-name="Path 297" d="M45.929,40.866v9.819a.984.984,0,0,0,.287.695l5.892,5.892A.982.982,0,0,0,53.5,55.883l-5.6-5.6V40.866a.982.982,0,1,0-1.964,0Z" transform="translate(-8.616 -7.481)" fill="#f06d4b"/>
      <path id="Path_298" data-name="Path 298" d="M27.494,4.909H24.548A4.909,4.909,0,0,0,19.874,0a4.765,4.765,0,0,0-3.52,1.345,5.254,5.254,0,0,0-1.62,3.561H11.783A3.927,3.927,0,0,0,7.856,8.837v.982H4.91A4.916,4.916,0,0,0,0,14.728V54a4.916,4.916,0,0,0,4.91,4.909H38.295a15.7,15.7,0,0,0,.982-31.371V14.728a4.915,4.915,0,0,0-4.909-4.909H31.422V8.837a3.927,3.927,0,0,0-3.928-3.927M9.82,8.837a1.963,1.963,0,0,1,1.964-1.964h3.928a.982.982,0,0,0,.981-.982v-.76a3.283,3.283,0,0,1,1.016-2.357,2.775,2.775,0,0,1,2.071-.812,2.941,2.941,0,0,1,2.8,2.946v.982a.982.982,0,0,0,.982.982h3.927a1.964,1.964,0,0,1,1.964,1.964v3.927a1.964,1.964,0,0,1-1.964,1.964H11.783A1.964,1.964,0,0,1,9.82,12.764ZM52.042,43.2A13.747,13.747,0,1,1,38.3,29.457,13.747,13.747,0,0,1,52.042,43.2M34.367,11.782a2.946,2.946,0,0,1,2.946,2.946V27.543a15.692,15.692,0,0,0-6.607,29.408H4.91A2.946,2.946,0,0,1,1.964,54V14.728A2.945,2.945,0,0,1,4.91,11.782H7.856v.982a3.927,3.927,0,0,0,3.927,3.927h15.71a3.928,3.928,0,0,0,3.928-3.927v-.982Z" transform="translate(0 0)" fill="#0070ac"/>
      <path id="Path_299" data-name="Path 299" d="M10.2,40.563h6.873a2.945,2.945,0,0,0,2.946-2.946V36.3a.982.982,0,0,0-1.964,0v1.316a.982.982,0,0,1-.981.982H10.2a.982.982,0,0,1-.982-.982V30.744a.982.982,0,0,1,.982-.982h5.243a.982.982,0,1,0,0-1.964H10.2a2.946,2.946,0,0,0-2.946,2.946v6.873A2.945,2.945,0,0,0,10.2,40.563Z" transform="translate(-1.36 -5.214)" fill="#0070ac"/>
      <path id="Path_300" data-name="Path 300" d="M21.214,28.088l-6.179,6.179L13.765,33a.982.982,0,0,0-1.388,1.388l1.964,1.964a.982.982,0,0,0,1.388,0L22.6,29.477a.982.982,0,0,0-1.388-1.388" transform="translate(-2.27 -5.217)" fill="#0070ac"/>
      <path id="Path_301" data-name="Path 301" d="M19.035,57.075a.982.982,0,0,0-.982.982v1.315a.982.982,0,0,1-.981.982H10.2a.982.982,0,0,1-.981-.982V52.5a.982.982,0,0,1,.981-.982h5.243a.982.982,0,1,0,0-1.964H10.2A2.946,2.946,0,0,0,7.252,52.5v6.873A2.946,2.946,0,0,0,10.2,62.319h6.874a2.946,2.946,0,0,0,2.946-2.946V58.057A.982.982,0,0,0,19.035,57.075Z" transform="translate(-1.36 -9.295)" fill="#0070ac"/>
      <path id="Path_302" data-name="Path 302" d="M21.214,49.844l-6.179,6.179-1.27-1.27a.982.982,0,0,0-1.388,1.388l1.964,1.964a.982.982,0,0,0,1.388,0L22.6,51.233a.982.982,0,0,0-1.388-1.388" transform="translate(-2.27 -9.298)" fill="#0070ac"/>
      <path id="Path_303" data-name="Path 303" d="M21.529,14.05h3.928a.982.982,0,0,0,0-1.964H21.529a.982.982,0,1,0,0,1.964" transform="translate(-3.854 -2.267)" fill="#0070ac"/>
    </g>
  </g>
</svg>
