<svg xmlns="http://www.w3.org/2000/svg" width="17.182" height="21" viewBox="0 0 17.182 21">
  <g id="_3155735" data-name="3155735" transform="translate(-3 -1)">
    <path id="Path_2364" data-name="Path 2364" d="M20.182,3.864a.955.955,0,0,0-.955-.955H16.364V1.955A.955.955,0,0,0,15.409,1H7.773a.955.955,0,0,0-.955.955v.955H3.955A.955.955,0,0,0,3,3.864V21.045A.955.955,0,0,0,3.955,22H19.227a.955.955,0,0,0,.955-.955ZM8.727,2.909h5.727V4.818H8.727Zm9.545,17.182H4.909V4.818H6.818v.955a.955.955,0,0,0,.955.955h7.636a.955.955,0,0,0,.955-.955V4.818h1.909Z" fill="#0070ac"/>
    <path id="Path_2365" data-name="Path 2365" d="M11.773,17H7.955a.955.955,0,0,0,0,1.909h3.818a.955.955,0,0,0,0-1.909Z" transform="translate(-0.182 -0.727)" fill="#0070ac"/>
    <path id="Path_2366" data-name="Path 2366" d="M15.591,13H7.955a.955.955,0,1,0,0,1.909h7.636a.955.955,0,0,0,0-1.909Z" transform="translate(-0.182 -0.545)" fill="#0070ac"/>
    <path id="Path_2367" data-name="Path 2367" d="M15.591,9H7.955a.955.955,0,1,0,0,1.909h7.636a.955.955,0,0,0,0-1.909Z" transform="translate(-0.182 -0.364)" fill="#0070ac"/>
  </g>
</svg>
