<svg xmlns="http://www.w3.org/2000/svg" width="19" height="19" viewBox="0 0 19 19">
  <g id="_88011" data-name="88011" transform="translate(0 -0.001)">
    <path id="Path_2329" data-name="Path 2329" d="M19,9.191A9.5,9.5,0,1,0,9.19,19c.1,0,.207,0,.31,0A9.5,9.5,0,0,0,19,9.191Zm-4.108,5.527A7.439,7.439,0,0,1,9.5,17c-.082,0-.164,0-.246,0A7.5,7.5,0,0,1,9.5,2c.082,0,.164,0,.246,0a7.5,7.5,0,0,1,5.141,12.712Z" transform="translate(0 0)" fill="#59626a"/>
    <path id="Path_2330" data-name="Path 2330" d="M60.23,46.626l-4.213-3.021a.679.679,0,0,0-1.075.552V50.2a.679.679,0,0,0,1.075.552L60.23,47.73A.679.679,0,0,0,60.23,46.626Z" transform="translate(-47.613 -37.677)" fill="#59626a"/>
  </g>
</svg>
